<?xml version="1.0" standalone="no"?>
<!DOCTYPE svg PUBLIC "-//W3C//DTD SVG 1.1//EN" "http://www.w3.org/Graphics/SVG/1.1/DTD/svg11.dtd" >
<svg xmlns="http://www.w3.org/2000/svg">
<metadata></metadata>
<defs>
<font id="coventry_garden_nfregular" horiz-adv-x="976" >
<font-face units-per-em="2048" ascent="1538" descent="-510" />
<missing-glyph horiz-adv-x="1024" />
<glyph horiz-adv-x="2048" />
<glyph horiz-adv-x="2048" />
<glyph unicode="&#xd;" horiz-adv-x="2048" />
<glyph unicode=" "  horiz-adv-x="1024" />
<glyph unicode="&#x09;" horiz-adv-x="1024" />
<glyph unicode="&#xa0;" horiz-adv-x="1024" />
<glyph unicode="!" horiz-adv-x="225" d="M33 82q0 35 23.5 58.5t56.5 23.5t56.5 -23.5t23.5 -58.5q0 -33 -24 -56.5t-56 -23.5q-33 0 -56.5 23.5t-23.5 56.5zM57 270v1172h111v-1172h-111z" />
<glyph unicode="&#x22;" horiz-adv-x="458" d="M33 1382l131 205l98 -61l-131 -205zM197 1382l131 205l98 -61l-131 -205z" />
<glyph unicode="#" horiz-adv-x="765" d="M33 0l153 768h-149v82h166l22 113h-188v81h205l77 394h95l-78 -394h127l78 394h94l-78 -394h176v-81h-192l-23 -113h215v-82h-231l-154 -768h-94l154 768h-127l-154 -768h-94zM297 850h127l22 113h-127z" />
<glyph unicode="$" horiz-adv-x="630" d="M33 381v172h110v-121q59 -41 127 -41q43 0 82 15.5t69 43t48 67.5t18 89q0 43 -15 78t-40.5 64.5t-58.5 55t-68 48.5l-47 31q-74 47 -128 102t-54 139q0 76 46 125t107 62v131h111v-139q23 -8 41 -22.5t35 -31.5q-2 -33 -2 -64.5v-66.5h-111v80q-14 8 -35 8 q-31 0 -56.5 -23.5t-25.5 -58.5t29 -63.5t70 -61.5q51 -43 106 -78.5t101.5 -77.5t76 -98.5t29.5 -138.5q0 -59 -19.5 -111.5t-54.5 -94.5t-82 -71.5t-102 -41.5v-285h-111v281q-57 6 -104 32.5t-92 65.5z" />
<glyph unicode="%" horiz-adv-x="1349" d="M33 1098q0 72 26.5 134t73.5 109.5t109.5 74t134.5 26.5q70 0 132 -26.5t108.5 -74t74 -109.5t27.5 -134t-26.5 -134.5t-74 -108.5t-110 -73.5t-131.5 -27.5q-72 0 -134.5 27.5t-109.5 73.5t-73.5 108.5t-26.5 134.5zM143 1098q0 -49 18.5 -91t50.5 -74t74 -50.5 t91 -18.5t91 18.5t72.5 50.5t49 75t18.5 90t-18.5 90t-50 74.5t-73.5 50t-89 18.5t-89 -18.5t-75 -50t-51.5 -73.5t-18.5 -91zM201 2l827 1438h111l-828 -1438h-110zM631 338q0 72 26.5 134.5t73.5 109.5t109.5 73.5t134.5 26.5q70 0 132 -26.5t108.5 -73.5t74 -109.5 t27.5 -134.5t-26.5 -134.5t-74 -108.5t-110 -73.5t-131.5 -27.5q-72 0 -134.5 27.5t-109.5 73.5t-73.5 108.5t-26.5 134.5zM741 338q0 -49 18.5 -91t50.5 -74t74 -50.5t91 -18.5t91 18.5t72.5 50.5t49 75t18.5 90t-18.5 90t-50 75t-73.5 50t-89 18t-89 -18t-75 -50 t-51.5 -74t-18.5 -91z" />
<glyph unicode="&#x26;" horiz-adv-x="1247" d="M33 530q0 94 31.5 178.5t87 153t131 115.5t163.5 67l-190 398h610v-279h-110v84q0 33 -21.5 58.5t-54.5 25.5h-248l486 -1012q57 94 57 211v127q0 35 -24.5 59.5t-59.5 24.5h-96v111h419v-111h-45q-33 0 -58.5 -22.5t-25.5 -56.5v-132q0 -92 -29.5 -175t-82.5 -150 q35 -47 66.5 -70.5t93.5 -23.5h47v-111h-230l-59 121q-68 -55 -153 -86t-179 -31q-109 0 -204 42t-166.5 113.5t-113.5 167t-42 203.5zM143 530q0 -86 33 -161.5t89.5 -132t132 -89t161.5 -32.5q82 0 154.5 29.5t128.5 80.5l-346 715q-76 -10 -140.5 -47t-111.5 -91 t-74 -124t-27 -148z" />
<glyph unicode="'" horiz-adv-x="294" d="M33 1382l131 205l98 -61l-131 -205z" />
<glyph unicode="(" horiz-adv-x="421" d="M33 109v796q0 162 80 303.5t217 223.5l59 -93q-117 -72 -181.5 -185.5t-64.5 -248.5v-796q0 -135 64.5 -249t181.5 -186l-59 -92q-137 82 -217 223.5t-80 303.5z" />
<glyph unicode=")" horiz-adv-x="421" d="M33 -326q117 72 181.5 185.5t64.5 249.5v796q0 135 -64.5 249t-181.5 185l59 93q137 -82 217 -223.5t80 -303.5v-796q0 -162 -80 -303.5t-217 -223.5z" />
<glyph unicode="*" horiz-adv-x="512" d="M33 1198v51h160l-113 113l37 37l112 -113v160h54v-160l112 113l37 -37l-113 -113h160v-51h-160l113 -113l-37 -36l-112 112v-160h-54v160l-112 -112l-37 36l113 113h-160z" />
<glyph unicode="+" horiz-adv-x="761" d="M33 545v82h307v307h82v-307h307v-82h-307v-307h-82v307h-307z" />
<glyph unicode="," horiz-adv-x="225" d="M33 82q0 35 23.5 58.5t56.5 23.5q39 0 59.5 -27.5t20.5 -62.5q0 -59 -27 -102.5t-55 -43.5v74q-33 2 -55.5 24.5t-22.5 55.5z" />
<glyph unicode="-" horiz-adv-x="413" d="M33 725v111h348v-111h-348z" />
<glyph unicode="." horiz-adv-x="225" d="M33 82q0 35 23.5 58.5t56.5 23.5t56.5 -23.5t23.5 -58.5q0 -33 -24 -56.5t-56 -23.5q-33 0 -56.5 23.5t-23.5 56.5z" />
<glyph unicode="/" horiz-adv-x="462" d="M33 0l286 1438h111l-287 -1438h-110z" />
<glyph unicode="0" horiz-adv-x="1505" d="M33 719q0 147 57 278t155.5 229.5t228.5 155t278 56.5q147 0 278 -56.5t229.5 -155t156 -229.5t57.5 -278t-57.5 -278.5t-156 -229.5t-229.5 -154.5t-278 -56.5t-278.5 57.5t-229 154.5t-154.5 228t-57 279zM143 719q0 -125 48.5 -235.5t131.5 -193.5t193.5 -131 t235.5 -48t236.5 49t193.5 132t130 193.5t48 233.5q0 125 -48 235.5t-131 193.5t-193.5 131t-235.5 48q-123 0 -233.5 -48t-193.5 -130t-132.5 -193.5t-49.5 -236.5z" />
<glyph unicode="1" horiz-adv-x="434" d="M33 2v113h45q35 0 59.5 24.5t24.5 59.5v1048q0 35 -24.5 59.5t-59.5 24.5h-45v111h239v-1243q0 -35 25 -59.5t59 -24.5h45v-113h-368z" />
<glyph unicode="2" horiz-adv-x="761" d="M33 1163v279h110v-53q90 53 197 53q80 0 150.5 -31t124 -85t84 -124.5t30.5 -150.5q0 -145 -70 -267q-41 -74 -91 -146.5t-103 -141.5q-72 -90 -135.5 -183.5t-98.5 -197.5h254q35 0 58.5 25.5t23.5 58.5v80h111v-277h-584l12 66q14 76 46 147.5t75 140t92.5 132 t96.5 122.5q84 104 143 214t59 227q0 57 -22.5 108t-61 90t-89 60.5t-107.5 21.5q-59 0 -115 -26q-45 -20 -62.5 -58.5t-17.5 -83.5h-110z" />
<glyph unicode="3" horiz-adv-x="860" d="M33 76v137q59 -49 128.5 -73.5t143.5 -24.5q80 0 151.5 30.5t127 83t91.5 122t42 147.5q0 113 -36 196.5t-89 139t-112.5 83t-108.5 27.5h-54v105q86 45 149.5 117.5t94.5 164.5h-301q-33 0 -57.5 -24.5t-24.5 -59.5v-82h-110v277h632l-12 -66q-20 -104 -73.5 -194 t-133.5 -156q158 -51 252 -186t94 -340q-6 -96 -49 -186.5t-111.5 -159t-160.5 -109.5t-199 -41q-72 0 -141.5 16.5t-132.5 55.5z" />
<glyph unicode="4" horiz-adv-x="831" d="M33 389l508 1053h127h131v-111h-45q-35 0 -59.5 -24.5t-24.5 -59.5v-747h118v-111h-118v-190q0 -35 24.5 -59.5t59.5 -24.5h45v-113h-369v113h43q35 0 59.5 24.5t24.5 59.5v190h-524zM209 500h348v721z" />
<glyph unicode="5" horiz-adv-x="864" d="M33 80v135q119 -100 262 -100q80 0 156.5 29.5t136 84t96.5 131t37 170.5q0 86 -34 161t-91 132.5t-133 90t-160 32.5q-39 0 -109.5 -13t-150.5 -59l197 568h467v-277h-113v82q0 35 -19.5 59.5t-60.5 24.5h-197l-96 -280q39 6 82 6q106 0 202.5 -42t169.5 -114 t114.5 -168.5t41.5 -202.5q0 -109 -41.5 -204t-113.5 -167.5t-168 -114.5t-205 -42q-72 0 -141.5 20.5t-128.5 57.5z" />
<glyph unicode="6" horiz-adv-x="1116" d="M33 526q0 63 16.5 132t46.5 124l361 660h127l-236 -430q98 45 211 45q98 0 192.5 -42t168 -115t118.5 -169t45 -203q0 -104 -39.5 -199.5t-110.5 -168t-168 -115.5t-210 -43q-102 0 -197.5 39t-167 108.5t-114.5 166t-43 210.5zM141 530q0 -84 32 -158.5t87 -133t131 -92 t164 -33.5q92 0 169 34.5t132 91t86 129t31 150.5q0 92 -35 170t-92.5 135.5t-134 89t-158.5 31.5q-74 0 -146.5 -25.5t-132 -78t-96.5 -130t-37 -180.5z" />
<glyph unicode="7" horiz-adv-x="950" d="M33 2l700 1329h-463q-33 0 -57.5 -24.5t-24.5 -59.5v-82h-110v277h840l-760 -1440h-125z" />
<glyph unicode="8" horiz-adv-x="1118" d="M33 530q0 160 88 291q90 133 235 195q-59 80 -92 175t-33 195v56h656v-56q0 -100 -33 -195t-94 -175q143 -57 235 -193q90 -133 90 -293q0 -217 -153 -372q-154 -156 -373 -156q-217 0 -373 156q-154 156 -153 372zM143 530q0 -86 33 -161.5t89.5 -132t132 -89 t161.5 -32.5t162 32.5t132 90t89 133t33 159.5q0 80 -32 156t-88 135.5t-132 95t-164 35.5q-84 0 -159.5 -35.5t-133 -94t-90.5 -134.5t-33 -158zM346 1331q10 -86 46 -165t100 -138l67 -65l68 65q61 61 99 139t46 164h-426z" />
<glyph unicode="9" horiz-adv-x="1122" d="M33 909q0 115 44 212.5t116.5 168t167 110.5t196.5 40q125 0 223.5 -46t167 -120t105.5 -168t37 -188q0 -63 -16.5 -129t-51.5 -127l-360 -660h-127l235 430q-104 -45 -211 -45q-106 0 -201.5 43t-168 115.5t-114.5 167t-42 196.5zM145 926q0 -102 36 -182t95.5 -134.5 t135 -82t153.5 -27.5q86 4 161 37.5t131 89t88 129t32 157.5q0 80 -32 156t-87 134.5t-129 93t-160 34.5q-92 0 -168.5 -32.5t-134 -89t-89.5 -130t-32 -153.5z" />
<glyph unicode=":" horiz-adv-x="225" d="M33 82q0 35 23.5 58.5t56.5 23.5t56.5 -23.5t23.5 -58.5q0 -33 -24 -56.5t-56 -23.5q-33 0 -56.5 23.5t-23.5 56.5zM33 451q0 35 23.5 58t56.5 23t56.5 -23t23.5 -58q0 -33 -24 -56.5t-56 -23.5q-33 0 -56.5 23.5t-23.5 56.5z" />
<glyph unicode=";" horiz-adv-x="233" d="M33 451q0 35 23.5 58t56.5 23t56.5 -23t23.5 -58q0 -33 -24 -56.5t-56 -23.5q-33 0 -56.5 23.5t-23.5 56.5zM41 82q0 35 23.5 58.5t56.5 23.5q39 0 61.5 -27.5t22.5 -62.5q0 -59 -26.5 -94t-59.5 -52v74q-33 2 -55.5 24.5t-22.5 55.5z" />
<glyph unicode="&#x3c;" horiz-adv-x="761" d="M33 569v84l696 308v-82l-606 -269l606 -266v-82z" />
<glyph unicode="=" horiz-adv-x="761" d="M33 451v81h696v-81h-696zM33 639v82h696v-82h-696z" />
<glyph unicode="&#x3e;" horiz-adv-x="761" d="M33 262v82l606 266l-606 269v82l696 -308v-84z" />
<glyph unicode="?" horiz-adv-x="724" d="M33 1159v166q59 53 126.5 85t149.5 32q158 0 271 -113q112 -112 112 -270q0 -141 -63 -230q-59 -86 -135 -155l-82 -74q-41 -37 -68 -77t-27 -89v-164h-110v164q0 92 42 152.5t105 111.5q10 8 21.5 17.5t34.5 32.5q33 29 63.5 60.5t55 68t39 82t14.5 100.5q0 125 -86 198 q-84 74 -191 74q-27 0 -55.5 -5t-51 -17.5t-38 -34t-15.5 -53.5v-62h-112zM190 82q0 35 24 58.5t56 23.5q35 0 58.5 -23.5t23.5 -58.5q0 -33 -23.5 -56.5t-58.5 -23.5q-33 0 -56.5 23.5t-23.5 56.5z" />
<glyph unicode="@" horiz-adv-x="1353" d="M33 670q0 160 62.5 292t169 225t245.5 144t293 51q127 0 224 -43t162.5 -115.5t98.5 -166.5t33 -195q0 -94 -30.5 -188t-90.5 -180q-57 -84 -130 -133.5t-144 -49.5q-78 0 -124 46t-46 126q-25 -33 -56.5 -64.5t-67.5 -57t-75 -41t-78 -15.5q-76 0 -135 72q-33 37 -46 81 t-13 93q0 98 45 198.5t119.5 180.5t170 131t193.5 51q57 0 93 -39t40 -96l60 131h147l-270 -608q-14 -33 -15 -66q0 -29 14.5 -53.5t51.5 -24.5q35 0 71.5 20.5t68.5 48.5t54.5 54.5t32.5 40.5q113 166 113 340q0 96 -34 182t-98.5 150.5t-159.5 102.5t-218 38 q-133 0 -244.5 -61.5t-194.5 -158.5t-129 -218t-46 -242q0 -111 35.5 -215t121.5 -192q84 -86 187.5 -125t216.5 -39q80 0 159.5 21.5t152.5 60.5t134.5 94t106.5 125l41 -25q-106 -164 -270.5 -242.5t-338.5 -78.5q-127 0 -246.5 41t-212 121t-148.5 198.5t-56 272.5z M426 459q0 -47 16.5 -75t51.5 -28q57 0 111 43t101.5 104.5t83.5 128.5t54 116q6 16 15 41.5t17.5 54t14.5 59.5t6 60q0 41 -18.5 71.5t-69.5 30.5q-78 0 -147.5 -66.5t-122 -162t-83 -198.5t-30.5 -179z" />
<glyph unicode="A" horiz-adv-x="946" d="M4 0v111h45q35 0 59.5 24.5t24.5 57.5v708q0 180 88 317.5t238 229.5q154 -92 240.5 -227.5t86.5 -319.5v-401h105v-111h-105v-196q0 -33 26 -57.5t58 -24.5h48v-111h-209q240 -199 521 -297t576 -98q162 0 326 31.5t318.5 95t297 156t265.5 214.5l77 -77 q-131 -129 -282.5 -228.5t-314 -166t-333.5 -100.5t-343 -34q-238 0 -462.5 57.5t-427 169t-376.5 277.5t-307 381v-186q0 -35 24.5 -59.5t59.5 -24.5h45v-111h-369zM244 500h432v401q0 125 -56.5 235.5t-160.5 180.5q-100 -70 -157.5 -180.5t-57.5 -235.5v-401zM367 389 q96 -154 225 -278q35 0 59.5 24.5t24.5 59.5v194h-309z" />
<glyph unicode="B" horiz-adv-x="950" d="M4 0v111h43q35 0 59.5 25.5t24.5 58.5v1048q0 35 -24.5 59.5t-59.5 24.5h-43v111h309q63 0 118.5 -27t94.5 -70t61.5 -98t22.5 -113q0 -66 -26 -120q74 -29 135 -79t105 -113.5t69 -139.5t25 -156q0 -106 -42 -201.5t-113 -166t-166 -112.5t-202 -42h-35 q236 -190 514.5 -284.5t569.5 -94.5q162 0 325.5 32t318.5 95.5t298 156.5t266 216l80 -80q-133 -129 -282.5 -227.5t-310.5 -165t-329 -100t-337 -35.5h-27q-340 0 -662.5 122.5t-590.5 364.5h-189zM242 111h153q92 0 168 35.5t130.5 94t84 134t29.5 153.5q0 74 -31 143.5 t-84 127t-128 96.5t-165 49q20 27 39 47.5t32 42t21.5 45t8.5 54.5q0 37 -14.5 72.5t-39 62t-58.5 43t-75 16.5h-71v-1216z" />
<glyph unicode="C" horiz-adv-x="935" d="M4 719q0 154 49 286t132 228t190.5 150.5t224.5 54.5q92 0 176 -33v35h111v-295h-111q0 72 -39 127t-121 55q-98 0 -188 -44t-159.5 -124t-111.5 -192.5t-42 -247.5q0 -197 63.5 -353.5t171 -276.5t251.5 -205t305 -139t329 -78.5t326 -24.5q178 0 358 29.5t349 87 t317.5 143.5t263.5 198l78 -77q-123 -121 -280 -213.5t-335 -154t-369.5 -93t-381.5 -31.5q-326 0 -611.5 87t-546.5 269q-399 279 -399 832z" />
<glyph unicode="D" horiz-adv-x="960" d="M4 0v111h43q35 0 59.5 25.5t24.5 58.5v1048q0 35 -24.5 59.5t-59.5 24.5h-43v111h193q147 0 276 -58.5t226.5 -157t153.5 -228.5t56 -275q0 -127 -44 -243t-120.5 -210t-180 -158.5t-224.5 -91.5q238 -199 519.5 -297t576.5 -98q336 0 648 124t568 376l80 -80 q-266 -262 -595 -395t-691 -133q-340 0 -662.5 122.5t-590.5 364.5h-189zM242 113q117 10 218 62t176 134t119 187.5t44 222.5t-44 222.5t-119 187t-176.5 134t-217.5 62.5v-1212z" />
<glyph unicode="E" horiz-adv-x="856" d="M2 526q0 84 26.5 162t72.5 142.5t109.5 113.5t137.5 78q-31 33 -49 77t-18 91q0 51 20.5 96t54 79t78.5 53.5t94 19.5h269v-238h-113v43q0 35 -24.5 59.5t-59.5 24.5h-72q-63 0 -99 -43t-36 -96q0 -39 15.5 -64.5t39 -41t50 -22.5t51.5 -7h176v-111h-197 q-84 0 -159.5 -32.5t-133 -89t-90 -132.5t-32.5 -162q0 -297 211 -475q209 -176 469 -266q18 -4 38 -12q160 -49 337.5 -74t361.5 -25h41q182 2 363.5 31t346 83t306 132t245.5 180l78 -77q-113 -111 -262 -197t-322.5 -144.5t-362.5 -88t-380 -29.5h-53q-186 0 -372.5 25.5 t-356.5 77.5t-316.5 132t-253 186.5t-168 241.5t-61.5 299z" />
<glyph unicode="F" horiz-adv-x="770" d="M-2 942v111h131v192q0 35 -24.5 58.5t-59.5 23.5h-45v111h700v-238h-110v45q0 35 -24.5 58.5t-59.5 23.5h-266v-274h258v-111h-258v-838q250 -242 558 -362.5t634 -120.5q336 0 649 124t569 376l78 -80q-131 -131 -281.5 -229.5t-314.5 -165t-335 -100t-341 -33.5 q-362 0 -705 135t-622 409v885h-131z" />
<glyph unicode="G" horiz-adv-x="999" d="M2 819q0 125 49 237.5t134 197.5t197 134.5t239 49.5h335v-111h-32q-33 0 -58.5 -23.5t-25.5 -58.5v-993q0 -66 -23.5 -126t-63.5 -109.5t-96.5 -82t-119.5 -43.5q205 -111 465 -164t540 -53h27q180 2 359 31t344 83t306.5 132t245.5 180l78 -77q-109 -109 -256 -194 t-318 -144.5t-358.5 -90t-374.5 -30.5h-53q-168 0 -349 19.5t-356 68.5t-336 132t-286 210l-4 4t-6 4l82 76q41 -41 89 -60.5t99 -19.5q43 0 84 14.5t75 41t58.5 66.5t32.5 89q-25 -4 -50.5 -7t-53.5 -3q-127 0 -240 49t-197 134t-133 197.5t-49 239.5zM113 819 q0 -111 42 -204t112.5 -160.5t161.5 -105.5t189 -38q27 0 54.5 2t56.5 9v1005h-108q-102 0 -194.5 -40t-162 -108.5t-110.5 -161.5t-41 -198z" />
<glyph unicode="H" horiz-adv-x="890" d="M0 0v111h45q35 0 59.5 24.5t24.5 59.5v1048q0 35 -24.5 59.5t-59.5 24.5h-45v111h369v-111h-45q-35 0 -59.5 -24.5t-24.5 -59.5v-190h354v190q0 35 -24.5 59.5t-59.5 24.5h-43v111h369v-111h-48q-33 0 -58 -22.5t-25 -57.5v-1143q250 -242 558 -362.5t633 -120.5 q164 0 328 32t320.5 94.5t301 155.5t269.5 218l80 -80q-133 -133 -285.5 -232.5t-317.5 -165t-338 -98t-345 -32.5h-25q-172 2 -346 37.5t-339 104.5t-318.5 170t-286.5 232v885h-354v-747q0 -35 24.5 -59.5t59.5 -24.5h32v-111h-356z" />
<glyph unicode="I" horiz-adv-x="432" d="M8 1327v111h369v-111h-47q-33 0 -58.5 -24.5t-25.5 -59.5v-1139q250 -242 558 -362.5t634 -120.5q164 0 327.5 32t320.5 94.5t301 155.5t269 218l80 -80q-133 -129 -282.5 -227.5t-310.5 -165t-328.5 -100t-337.5 -35.5h-27q-360 0 -700 136t-615 408v1186 q0 35 -24.5 59.5t-59.5 24.5h-43z" />
<glyph unicode="J" horiz-adv-x="843" d="M8 2l80 76q74 -76 168 -80h23q49 0 94 17.5t80.5 49t57 78.5t21.5 107v995q0 35 -24.5 58.5t-58.5 23.5h-46v111h369v-111h-45q-33 0 -58.5 -22.5t-25.5 -57.5v-997q0 -68 -23.5 -128.5t-65.5 -107.5t-97.5 -79.5t-118.5 -43.5q102 -59 223 -100t253 -67.5t273.5 -38 t282.5 -11.5q180 0 359.5 29t344 83t306 133t246.5 181l77 -80q-111 -111 -261 -193.5t-324 -140t-364.5 -88t-381.5 -34.5h-29q-166 0 -346 19.5t-356 68.5t-337 132t-286 210z" />
<glyph unicode="K" horiz-adv-x="921" d="M2 4v111h43q35 0 59.5 25.5t24.5 58.5v1046q0 35 -24.5 59.5t-59.5 24.5h-43v111h367v-111h-45q-35 0 -59.5 -24.5t-24.5 -59.5v-688q154 139 247 314.5t125 377.5q0 45 -22.5 62.5t-57.5 17.5h-45v111h369v-111h-47q-66 0 -84 -84q-33 -203 -121 -382t-225 -322 q70 -119 145.5 -230.5t175.5 -212.5q125 -123 267.5 -216t298 -155.5t318.5 -94t329 -31.5h24q160 2 320 35.5t311.5 96t290.5 153.5t260 212l78 -78q-129 -129 -278.5 -227t-312.5 -164.5t-333 -101.5t-342 -37h-24q-252 0 -487.5 66.5t-441.5 191.5t-379 305t-302 408 q-6 -6 -17.5 -15.5t-39.5 -31.5v-215q0 -33 24.5 -58.5t59.5 -25.5h45v-111h-367z" />
<glyph unicode="L" horiz-adv-x="653" d="M6 109v118q33 16 79 27.5t93 11.5h23v971q0 35 -24.5 59.5t-59.5 24.5h-43v111h366v-111h-45q-35 0 -59.5 -24.5t-24.5 -59.5v-995q78 -27 151 -78t142 -115q248 -225 548 -336.5t617 -111.5h31q158 2 315.5 35.5t308 96t289 153.5t259.5 212l77 -78 q-260 -260 -582.5 -391t-664.5 -139h-37q-336 0 -654 119t-583 360q-84 76 -174 134.5t-188 58.5q-39 0 -81 -12.5t-79 -40.5z" />
<glyph unicode="M" horiz-adv-x="1038" d="M2 0v111h45q35 0 59.5 24.5t24.5 59.5v1048q0 35 -24.5 59.5t-59.5 24.5h-45v111h209q51 -20 95 -54t79 -74t61.5 -83t45.5 -82q47 98 111.5 179t168.5 114h203v-111h-45q-33 0 -58.5 -24.5t-25.5 -59.5v-1139q250 -242 558 -362.5t634 -120.5q336 0 649 124t569 376 l78 -80q-131 -131 -281.5 -229.5t-314.5 -165t-335 -100t-341 -33.5q-362 0 -705 135t-622 409v1233q-88 -74 -137 -177t-53 -220h-111q0 119 -51 224.5t-141 176.5v-1099q0 -35 24.5 -59.5t59.5 -24.5h45v-111h-369z" />
<glyph unicode="N" horiz-adv-x="960" d="M6 0v111h43q35 0 59.5 24.5t24.5 59.5v1048q0 35 -24.5 59.5t-59.5 24.5h-43v111h238v-158q0 -299 106.5 -575.5t298.5 -503.5v1042q0 35 -24.5 59.5t-59.5 24.5h-43v111h369v-111h-47q-33 0 -58.5 -22.5t-25.5 -57.5v-1165q121 -117 259 -205t287.5 -148.5t306 -92 t314.5 -33.5h27q164 0 325.5 30.5t316 93t297 155.5t265.5 216l80 -78q-131 -129 -282.5 -228t-314.5 -165.5t-334 -100.5t-343 -34q-289 0 -555 84t-489.5 238.5t-397.5 374t-278 487.5v-481q0 -35 25.5 -59.5t58.5 -24.5h47v-111h-369z" />
<glyph unicode="O" horiz-adv-x="1507" d="M2 719q0 147 57.5 278t155.5 229.5t228 155t278 56.5q147 0 277 -56.5t228.5 -155t156 -229.5t57.5 -278q0 -154 -60.5 -286t-161 -228t-230.5 -150.5t-271 -54.5q-104 0 -209 33l33 104q83 -26 171 -26h7q119 0 229.5 46t194.5 128t135 193.5t51 240.5q0 125 -48 235.5 t-131 193.5t-193.5 131t-235.5 48t-235.5 -48t-193.5 -131t-131 -193.5t-48 -235.5q0 -174 59 -316.5t160.5 -253t240 -191.5t296 -133t327.5 -76.5t336 -24.5h59q174 0 349.5 30.5t335 89t300 142.5t248.5 188l80 -78q-123 -119 -280.5 -209t-337 -151.5t-372 -92 t-382.5 -30.5q-174 0 -354.5 26.5t-350.5 84t-320.5 145.5t-262 211t-177 281.5t-65.5 357.5z" />
<glyph unicode="P" horiz-adv-x="751" d="M0 1327v111h199q104 0 195 -42t160 -114t107.5 -166t38.5 -196q0 -98 -35.5 -186.5t-98 -158t-147.5 -115.5t-181 -57v-299q250 -242 558 -362.5t634 -120.5q336 0 649 124t569 376l80 -80q-133 -129 -282.5 -227.5t-310.5 -165t-329 -100t-338 -35.5h-26 q-360 0 -700.5 136t-614.5 408v1186q0 35 -24.5 59.5t-59.5 24.5h-43zM238 516q74 10 138 46t111.5 90.5t75 123t27.5 144.5t-27.5 144.5t-75 122.5t-112 90t-137.5 46v-807z" />
<glyph unicode="Q" horiz-adv-x="1478" d="M0 719q0 147 57.5 278t155.5 229.5t228 155t278 56.5q147 0 277 -56.5t228.5 -155t156 -229.5t57.5 -278q0 -129 -43 -246t-121 -211q127 -160 282.5 -283.5t330.5 -206.5t365.5 -126t387.5 -43h49q313 0 614 127t545 370l78 -77q-279 -272 -611.5 -401.5t-684.5 -129.5 q-207 0 -408 46t-385 133t-347 216t-294 295q-94 -86 -215 -134t-262 -48q-147 0 -278.5 57.5t-228.5 154.5t-154.5 228t-57.5 279zM111 719q0 -88 24.5 -170t69.5 -152.5t107.5 -128t136.5 -94.5q-14 33 -24.5 64.5t-10.5 68.5q0 70 30.5 127.5t82 99t118 64.5t139.5 23 q63 0 126 -19.5t118 -53.5t101.5 -83t78.5 -107q55 76 87 168.5t32 192.5q0 125 -48 235.5t-131 193.5t-193.5 131t-235.5 48t-235.5 -48t-193.5 -131t-131 -193.5t-48 -235.5zM524 303q0 -37 15.5 -71.5t41 -62.5t62.5 -45.5t80 -17.5q61 0 108.5 27t47.5 86q0 41 -25 61.5 t-61 20.5q-14 0 -29.5 -6t-26.5 -19l-78 80q29 29 64 42.5t72 13.5q39 0 72.5 -15.5t60 -42t42 -61.5t15.5 -72q0 -6 -2 -21.5t-6 -31.5q43 20 82 46.5t74 57.5q-55 100 -144.5 169t-200.5 69q-59 0 -107 -16.5t-83 -44t-54.5 -65.5t-19.5 -81z" />
<glyph unicode="R" horiz-adv-x="747" d="M0 4v111h45q35 0 59.5 25.5t24.5 58.5v1046q0 35 -24.5 59.5t-59.5 24.5h-45v111h199q104 0 195 -42t159 -114t106.5 -166t38.5 -196q0 -147 -74.5 -268.5t-197.5 -186.5q121 -213 288 -376t361.5 -271.5t409.5 -163.5t434 -55h25q160 2 319.5 35.5t311 96t290.5 153.5 t260 212l78 -78q-129 -127 -278.5 -226t-312.5 -166.5t-333 -102.5t-342 -35h-49q-231 2 -458.5 65.5t-432 183.5t-378 292t-295.5 393q-23 -6 -42.5 -10t-43.5 -6v-209q0 -33 25.5 -58.5t58.5 -25.5h47v-111h-369zM238 518q74 10 138 46t111.5 90.5t74 123t26.5 144.5 t-26.5 144.5t-74 122.5t-112 90t-137.5 46v-807z" />
<glyph unicode="S" horiz-adv-x="862" d="M8 236l96 57q47 -78 124 -121t163 -43q74 0 134.5 28.5t104.5 75t68.5 104.5t24.5 120q0 57 -16.5 105t-45 93t-66.5 86t-79 82l-18 19q-41 41 -79 82t-66.5 83t-46 86t-17.5 93q0 55 20.5 102t56 81t81 52.5t94.5 18.5q33 0 58.5 -8.5t49.5 -18.5v25h113v-242h-113v78 q-20 29 -49 41t-59 12q-23 0 -46.5 -8t-45 -24.5t-35 -43t-13.5 -63.5t16.5 -72t44 -70.5t63.5 -72.5t73 -74q43 -45 86 -93t76 -101.5t53.5 -114t20.5 -127.5q0 -86 -33 -167t-92.5 -142.5t-142.5 -98.5t-185 -37q227 -174 490.5 -264t537.5 -96h33q332 0 645 126t565 374 l78 -80q-129 -129 -278.5 -226.5t-312.5 -164t-335 -101.5t-342 -37h-24q-178 0 -355.5 35t-346.5 103.5t-323.5 172t-287.5 240.5z" />
<glyph unicode="T" horiz-adv-x="655" d="M0 1200v238h600v-238h-111v43q0 35 -24.5 59.5t-58.5 24.5h-58v-1223q250 -242 558 -362.5t634 -120.5q336 0 649.5 124t569.5 376l77 -80q-131 -131 -281.5 -229.5t-314 -165t-334.5 -100t-341 -33.5q-362 0 -705.5 135t-621.5 409v1270h-43q-33 0 -58.5 -24.5 t-25.5 -59.5v-43h-111z" />
<glyph unicode="U" horiz-adv-x="929" d="M2 1327v111h240v-1119q0 -43 16 -80.5t45 -66.5t67 -45t81 -16t80.5 16t66.5 45t45 66.5t16 80.5v1119h240v-111h-45q-33 0 -57.5 -23.5t-24.5 -58.5v-1141q250 -242 558 -362.5t634 -120.5q336 0 649.5 124t569.5 376l77 -80q-133 -133 -285.5 -232.5t-317.5 -165 t-338 -98t-345 -32.5h-24q-172 2 -346 37.5t-339 104.5t-318.5 170t-287.5 232v21q-41 -37 -95 -57.5t-113 -20.5q-66 0 -124.5 25.5t-101.5 68.5t-68.5 101.5t-25.5 123.5v924q0 35 -24.5 59.5t-59.5 24.5h-45z" />
<glyph unicode="V" horiz-adv-x="1015" d="M6 1327v111h240v-912q0 -154 65.5 -281.5t177.5 -226.5q117 98 178.5 226.5t61.5 281.5v912h238v-111h-43q-35 0 -59.5 -24.5t-24.5 -59.5v-717q0 -172 -65.5 -317.5t-194.5 -257.5q113 -78 245.5 -131t272 -85t282 -46.5t277.5 -14.5h41q180 0 360 28t345 82t307.5 134 t244.5 182l80 -77q-111 -109 -258 -194t-319 -144.5t-359.5 -90t-374.5 -30.5h-67q-147 0 -305 19.5t-314.5 62.5t-307 108.5t-286.5 157.5q-311 213 -311 614v717q0 35 -23.5 59.5t-58.5 24.5h-45z" />
<glyph unicode="W" horiz-adv-x="1187" d="M2 1327v111h240v-1049q0 -86 37.5 -160.5t103.5 -126.5q68 51 106.5 126t38.5 161v854q0 35 -24.5 59.5t-59.5 24.5h-47v111h369v-111h-43q-33 0 -58.5 -22.5t-25.5 -57.5v-858q0 -86 38 -160.5t105 -126.5q66 51 105 125t39 160v1051h237v-111h-43q-35 0 -59.5 -24.5 t-24.5 -59.5v-1139q250 -242 558.5 -362.5t633.5 -120.5q336 0 649.5 124t569.5 376l78 -80q-131 -131 -282 -229.5t-314.5 -165t-334.5 -100t-341 -33.5q-362 0 -705.5 135t-621.5 409v33q-63 -66 -144 -117q-63 39 -114.5 87.5t-85.5 107.5q-33 -59 -83 -107.5t-116 -87.5 q-117 70 -184.5 172.5t-67.5 243.5v856q0 35 -24.5 58.5t-59.5 23.5h-45z" />
<glyph unicode="X" horiz-adv-x="925" d="M-2 1327v111h369v-111h-45q-31 0 -57.5 -21.5t-26.5 -54.5v-28q0 -61 9 -130t24.5 -136.5t35 -132t39.5 -122.5q18 -53 44 -114.5t59 -104.5q39 72 75.5 159t66.5 184.5t48 198.5t18 200v26q0 33 -26.5 54.5t-57.5 21.5h-45v111h369v-111h-45q-33 0 -57.5 -23.5 t-26.5 -58.5q-10 -225 -71.5 -446t-182.5 -422q125 -193 289 -337t350 -241.5t389 -146.5t408 -49q164 0 326.5 31.5t317 93t297 154.5t265.5 216l78 -78q-131 -129 -282.5 -228t-314.5 -165.5t-334 -100.5t-343 -34q-213 0 -425 48t-408.5 146.5t-369.5 246t-308 343.5 q-18 -23 -37 -54.5t-19 -57.5q0 -55 58 -55v-109h-398v111h45q31 0 69 23.5t77 60t74.5 84t64.5 94.5q-121 225 -183.5 433t-72.5 439q-2 35 -25.5 58.5t-58.5 23.5h-45z" />
<glyph unicode="Y" horiz-adv-x="935" d="M4 1327v111h240v-623q0 -123 57 -233.5t158 -182.5q104 72 160.5 181.5t56.5 234.5v623h239v-111h-45q-33 0 -58.5 -24.5t-25.5 -59.5v-428q0 -154 -71.5 -290t-200.5 -222v-199q250 -242 558 -362.5t634 -120.5q336 0 649.5 124t569.5 376l77 -80 q-131 -131 -281.5 -229.5t-314 -165t-334.5 -100t-341 -33.5q-362 0 -705.5 135t-622.5 409v248q-125 84 -197.5 220.5t-72.5 289.5v428q0 35 -24.5 59.5t-59.5 24.5h-45z" />
<glyph unicode="Z" horiz-adv-x="593" d="M2 57l416 1270h-129q-33 0 -58.5 -24.5t-25.5 -59.5v-43h-111v238h475l-440 -1348q250 -236 553 -352.5t625 -116.5q336 0 649 124t569 376l78 -80q-133 -133 -285.5 -232.5t-317.5 -165t-338 -98t-345 -32.5h-25q-172 2 -346 37.5t-339 104.5t-318.5 170t-286.5 232z " />
<glyph unicode="[" horiz-adv-x="276" d="M33 -424v1864h211v-109h-101v-1646h101v-109h-211z" />
<glyph unicode="\" horiz-adv-x="462" d="M33 1438h110l287 -1438h-111z" />
<glyph unicode="]" horiz-adv-x="276" d="M33 -315h100v1646h-100v109h211v-1864h-211v109z" />
<glyph unicode="^" horiz-adv-x="1024" />
<glyph unicode="_" horiz-adv-x="1245" d="M33 530q0 94 31.5 179.5t87 153t131 114.5t161.5 67l-192 398h639v-279h-111v84q0 33 -21.5 58.5t-51.5 25.5h-279l490 -1012q27 47 42 100.5t15 110.5v127q0 35 -24.5 59.5t-59.5 24.5h-98v111h421v-111h-45q-31 0 -57.5 -23.5t-26.5 -55.5v-132q0 -92 -29.5 -174 t-82.5 -149q74 -131 193.5 -240.5t284.5 -189.5t376 -125t469 -45q180 0 361.5 29.5t349 87t314 143.5t261.5 201l78 -80q-125 -123 -281.5 -215t-335 -153.5t-371 -92.5t-386.5 -31q-209 0 -417 39t-392.5 118t-336 196.5t-245.5 275.5q-70 -57 -154 -89t-182 -32 q-109 0 -204 42t-166.5 113.5t-113.5 167t-42 203.5zM143 530q0 -86 33 -161.5t89.5 -132t132 -89t161.5 -32.5q82 0 153.5 28.5t127.5 79.5l-346 717q-74 -10 -137.5 -47t-110.5 -91t-75 -124t-28 -148z" />
<glyph unicode="`" horiz-adv-x="405" d="M33 1464v142l340 -97v-45h-340z" />
<glyph unicode="a" d="M33 0v111h45q35 0 59.5 24.5t24.5 57.5v155h-90v111h90v442q0 180 88 317.5t237 229.5q154 -92 241 -227.5t87 -319.5v-708q0 -33 25.5 -57.5t58.5 -24.5h45v-111h-366v111h43q35 0 59.5 24.5t24.5 59.5v153h-433v-153q0 -35 25 -59.5t59 -24.5h45v-111h-368zM272 459 h433v442q0 125 -56.5 235.5t-161.5 180.5q-100 -70 -157.5 -180.5t-57.5 -235.5v-442z" />
<glyph unicode="b" horiz-adv-x="980" d="M33 0v111h45q35 0 59.5 25.5t24.5 58.5v1048q0 35 -24.5 59.5t-59.5 24.5h-45v111h311q63 0 118.5 -27t94.5 -70t61.5 -98t22.5 -113q0 -66 -27 -120q74 -29 135.5 -78t105.5 -113.5t68.5 -140.5t24.5 -156q0 -106 -42 -201.5t-112.5 -166t-167 -112.5t-202.5 -42h-391z M272 111h152q92 0 168 35.5t131 94t85 134t30 153.5q0 80 -36 153t-93.5 128t-131 91t-147.5 44q49 49 74.5 86t25.5 103q0 37 -14 72.5t-38.5 62t-59.5 43t-74 16.5h-72v-1216z" />
<glyph unicode="c" horiz-adv-x="839" d="M33 719q0 147 57 278t154.5 228.5t228.5 155t279 57.5h55v-250h-111v18q0 41 -30.5 70t-69.5 29q-10 0 -27 -5q-90 -29 -167.5 -85t-135 -132.5t-90.5 -170t-33 -193.5q0 -238 160 -410q104 -113 225 -155.5t279 -42.5v-111h-55q-147 0 -278.5 57.5t-229 154.5 t-154.5 228t-57 279z" />
<glyph unicode="d" horiz-adv-x="970" d="M33 0v111h45q35 0 59.5 25.5t24.5 58.5v1048q0 35 -24.5 59.5t-59.5 24.5h-45v111h194q147 0 276.5 -58.5t226.5 -157t152.5 -229.5t55.5 -274t-55.5 -273.5t-152.5 -229.5t-226 -157.5t-277 -58.5h-194zM272 113q117 10 218.5 62t176 134t117.5 187.5t43 222.5 t-43 222.5t-117.5 187t-176 134t-218.5 62.5v-1212z" />
<glyph unicode="e" horiz-adv-x="768" d="M33 942v111h131v192q-2 35 -25.5 58.5t-58.5 23.5h-45v111h700v-238h-110v45q0 35 -25 58.5t-59 23.5h-267v-274h258v-111h-258v-831h269q31 0 56.5 24.5t25.5 57.5v47h110v-240h-700v111h45q35 0 59.5 24.5t24.5 57.5v749h-131z" />
<glyph unicode="f" horiz-adv-x="768" d="M33 942v111h131v190q0 35 -24.5 59.5t-59.5 24.5h-45v111h700v-195h-110v84h-351v-274h258v-111h-258v-747q0 -33 26 -58.5t58 -25.5h48v-111h-369v111h45q31 0 54.5 21.5t27.5 51.5v758h-131z" />
<glyph unicode="g" horiz-adv-x="839" d="M33 719q0 147 57 278t154.5 228.5t228.5 155t279 57.5h55v-250h-111v18q0 41 -30.5 70t-69.5 29q-10 0 -27 -5q-90 -29 -167.5 -85t-135 -132.5t-90.5 -170t-33 -193.5q0 -119 44 -224.5t119 -186.5t175.5 -133t214.5 -62v829h-102q-33 0 -56.5 -24.5t-23.5 -59.5v-43 h-111v238h404v-1053h-55q-147 0 -278.5 57.5t-229 154.5t-154.5 228t-57 279z" />
<glyph unicode="h" horiz-adv-x="901" d="M33 0v111h45q35 0 59.5 24.5t24.5 59.5v1048q0 35 -24.5 59.5t-59.5 24.5h-45v111h368v-111h-45q-35 0 -59.5 -24.5t-24.5 -59.5v-190h357v190q0 35 -24.5 59.5t-59.5 24.5h-45v111h368v-111h-45q-35 0 -59.5 -24.5t-24.5 -59.5v-1048q0 -35 24.5 -59.5t59.5 -24.5h45 v-111h-368v111h45q35 0 59.5 24.5t24.5 59.5v747h-357v-747q0 -35 25 -59.5t59 -24.5h45v-111h-368z" />
<glyph unicode="i" horiz-adv-x="434" d="M33 0v111h45q35 0 59.5 24.5t24.5 59.5v1048q0 35 -24.5 59.5t-59.5 24.5h-45v111h368v-111h-45q-35 0 -59.5 -24.5t-24.5 -59.5v-1048q0 -35 25 -59.5t59 -24.5h45v-111h-368z" />
<glyph unicode="j" horiz-adv-x="550" d="M33 -121q117 72 181.5 185.5t64.5 248.5v932q0 35 -25 58.5t-59 23.5h-45v111h368v-111h-45q-33 0 -58.5 -22.5t-25.5 -57.5v-934q0 -162 -80 -303t-217 -223z" />
<glyph unicode="k" horiz-adv-x="921" d="M33 0v111h43q35 0 59.5 24.5t24.5 59.5v1048q0 35 -24.5 59.5t-59.5 24.5h-43v111h368v-111h-45q-35 0 -59.5 -24.5t-24.5 -59.5v-688q154 137 246 312t129 374v10q0 31 -24.5 53.5t-57.5 22.5h-45v111h369v-111h-45q-35 0 -57.5 -24.5t-26.5 -59.5q-31 -199 -119 -379 t-229 -327q10 -20 33.5 -60.5t54 -87.5t68.5 -96t77 -90t78 -66.5t74 -25.5h45v-111h-406v111q37 4 51.5 19t14.5 36q0 16 -9.5 36.5t-21.5 37.5q-39 53 -75 107t-66 112l-58 -49v-215q0 -35 25 -59.5t59 -24.5h45v-111h-368z" />
<glyph unicode="l" horiz-adv-x="763" d="M33 0v111h45q35 0 59.5 24.5t24.5 57.5v1050q0 35 -24.5 59.5t-59.5 24.5h-45v111h368v-111h-45q-35 0 -59.5 -24.5t-24.5 -59.5v-1132h267q35 0 58.5 24.5t23.5 57.5v47h110v-240h-698z" />
<glyph unicode="m" horiz-adv-x="1036" d="M33 0v111h43q35 0 59.5 24.5t24.5 59.5v1048q0 35 -24.5 59.5t-59.5 24.5h-43v111h207q70 -29 113.5 -66t74.5 -77t51.5 -78.5t40.5 -71.5q20 43 45 85t57.5 81t75.5 70.5t103 56.5h203v-111h-46q-33 0 -58.5 -24.5t-25.5 -59.5v-1048q0 -35 26 -59.5t58 -24.5h46v-111 h-369v111h45q35 0 59.5 24.5t24.5 59.5v1095q-86 -74 -136 -177t-55 -220h-110q0 119 -50.5 224.5t-142.5 176.5v-1099q0 -35 26 -59.5t58 -24.5h47v-111h-368z" />
<glyph unicode="n" horiz-adv-x="966" d="M33 0v111h45q35 0 59.5 24.5t24.5 59.5v1048q0 35 -24.5 59.5t-59.5 24.5h-45v111h198q6 0 9 -2q14 0 20 -6q141 -82 252 -205t180 -271v289q0 35 -24.5 59.5t-59.5 24.5h-43v111h369v-111h-47q-33 0 -58.5 -24.5t-25.5 -59.5v-1048q0 -35 25.5 -59.5t58.5 -24.5h47v-111 h-369v111h43q35 0 59.5 24.5t24.5 59.5v278q0 246 -112 459q-113 217 -308 358v-1095q0 -35 25 -59.5t59 -24.5h45v-111h-368z" />
<glyph unicode="o" horiz-adv-x="1505" d="M33 719q0 147 57 278t155.5 229.5t228.5 155t278 56.5q147 0 278 -56.5t229.5 -155t156 -229.5t57.5 -278t-57.5 -278.5t-156 -229.5t-229.5 -154.5t-278 -56.5t-278.5 57.5t-229 154.5t-154.5 228t-57 279zM143 719q0 -125 48.5 -235.5t131.5 -193.5t193.5 -131 t235.5 -48t236.5 49t193.5 132t130 193.5t48 233.5q0 125 -48 235.5t-131 193.5t-193.5 131t-235.5 48q-123 0 -233.5 -48t-193.5 -130t-132.5 -193.5t-49.5 -236.5z" />
<glyph unicode="p" horiz-adv-x="765" d="M33 0v111h45q35 0 59.5 24.5t24.5 59.5v1048q0 35 -24.5 59.5t-59.5 24.5h-45v111h200q102 0 193.5 -42t159 -114t107.5 -165t40 -197q0 -98 -35.5 -187.5t-98 -159t-146.5 -114.5t-181 -56v-208q0 -35 25 -59.5t59 -24.5h45v-111h-368zM272 516q74 10 137.5 46 t110.5 90.5t75 123t28 144.5t-28 144.5t-75 122.5t-110.5 90t-137.5 46v-807z" />
<glyph unicode="q" horiz-adv-x="1607" d="M33 719q0 147 57 278t155.5 229.5t228.5 155t278 56.5q147 0 277 -56.5t228.5 -155t155.5 -229.5t57 -278q0 -125 -40.5 -238.5t-112.5 -206.5q49 -66 105.5 -114.5t107.5 -48.5h45v-111h-406v111q35 4 49.5 19t14.5 36q0 12 -2 18q-94 -86 -216 -135t-263 -49 q-147 0 -278.5 57.5t-229 154.5t-154.5 228t-57 279zM143 719q0 -88 25 -170t69 -152.5t106.5 -128t137.5 -94.5q-26 57 -26 117q0 65 24.5 122.5t68.5 102.5t107.5 71.5t143.5 26.5q111 0 211 -61t186 -152l43 -45q57 78 89 170.5t32 192.5q0 125 -48 235.5t-131 193.5 t-193.5 131t-235.5 48t-235.5 -48t-193.5 -131t-131.5 -193.5t-48.5 -235.5zM565 295q0 -35 13.5 -67.5t37 -59.5t58.5 -42t78 -15q123 0 227 44t186 119l-47 50q-70 70 -147.5 125t-171.5 55q-92 0 -161 -57.5t-73 -151.5z" />
<glyph unicode="r" horiz-adv-x="874" d="M33 0v111h43q35 0 59.5 24.5t24.5 59.5v1048q0 35 -24.5 59.5t-59.5 24.5h-43v111h198q104 0 195.5 -42t160 -114t107.5 -166t39 -196q0 -150 -76.5 -272t-201.5 -187q31 -51 72.5 -112.5t88 -114t93.5 -88t88 -35.5h45v-111h-406v111q35 4 49.5 19t14.5 36 q0 25 -16.5 56.5t-40 66.5t-49 68.5t-44.5 62.5q-18 -6 -37.5 -9t-42.5 -8v-208q0 -35 26 -59.5t58 -24.5h47v-111h-368zM270 516q74 10 138.5 46t111.5 90.5t75 123t28 144.5t-28 144.5t-75 122.5t-111.5 90t-138.5 46v-807z" />
<glyph unicode="s" horiz-adv-x="847" d="M33 0v319h110v-79q0 -39 27 -63.5t63.5 -39t75.5 -20.5t62 -6q68 0 129 26.5t106 71.5t72 106.5t27 128.5q0 63 -23 116.5t-60.5 97.5t-86 82t-97.5 71l-41 27q-53 33 -103 69.5t-90 79.5t-64.5 91t-24.5 108q0 51 20.5 97t54 80t78.5 53.5t92 19.5q51 0 97 -17v21h110 v-244h-110v45q0 41 -28 62.5t-67 21.5q-53 0 -95 -39t-42 -100q0 -63 49.5 -115.5t120.5 -99.5l105 -68q59 -39 115.5 -84t100.5 -100t71.5 -123t27.5 -152q0 -92 -36 -173t-96 -141t-141 -95t-171 -35q-59 0 -117.5 16.5t-110.5 44.5v-61h-110z" />
<glyph unicode="t" horiz-adv-x="663" d="M33 1200v238h598v-238h-111v43q0 35 -24.5 59.5t-59.5 24.5h-49v-1132q0 -35 24.5 -59.5t59.5 -24.5h45v-111h-369v111h43q35 0 59.5 24.5t24.5 59.5v1132h-47q-35 0 -59.5 -24.5t-24.5 -59.5v-43h-110z" />
<glyph unicode="u" horiz-adv-x="960" d="M33 1327v111h239v-1119q0 -43 16.5 -80.5t45 -66.5t66.5 -45t81 -16q41 0 79 16t66.5 45t46 66.5t17.5 80.5v1119h238v-111h-43q-35 0 -59.5 -23.5t-24.5 -58.5v-926q0 -66 -25.5 -123t-68.5 -101t-101.5 -69.5t-124.5 -25.5t-124 25.5t-102 68.5t-69.5 101.5 t-25.5 123.5v924q0 35 -23.5 59.5t-58.5 24.5h-45z" />
<glyph unicode="v" d="M33 1327v111h239v-920q0 -125 57.5 -234.5t157.5 -181.5q104 72 161 181.5t57 234.5v920h239v-111h-45q-33 0 -58.5 -24.5t-25.5 -59.5v-725q0 -162 -79 -303t-220 -223l-29 -21l-28 19q-137 86 -217 226t-80 302v725q0 35 -24.5 59.5t-59.5 24.5h-45z" />
<glyph unicode="w" horiz-adv-x="1228" d="M33 1327v111h239v-1049q0 -86 38 -160.5t106 -126.5q68 51 105.5 126t37.5 161v854q0 35 -24.5 59.5t-59.5 24.5h-45v111h369v-111h-45q-33 0 -58.5 -22.5t-25.5 -57.5v-858q0 -86 37.5 -160.5t105.5 -126.5q68 51 105.5 126t37.5 161v1049h240v-111h-45 q-33 0 -58.5 -24.5t-25.5 -59.5v-854q0 -141 -68.5 -243.5t-185.5 -172.5q-63 39 -113.5 87.5t-85.5 107.5q-33 -59 -83 -107.5t-115 -87.5q-117 70 -185.5 172.5t-68.5 243.5v856q0 35 -24.5 58.5t-59.5 23.5h-45z" />
<glyph unicode="x" horiz-adv-x="964" d="M33 1327v111h368v-111h-45q-31 0 -57.5 -21.5t-26.5 -54.5v-28q0 -61 9.5 -130t25 -136.5t34.5 -132t40 -122.5q18 -53 44 -114.5t58 -104.5q39 72 76 159t66.5 184.5t48 198.5t18.5 200v26q0 33 -26.5 54.5t-57.5 21.5h-45v111h369v-111h-45q-33 0 -57.5 -23.5 t-26.5 -58.5q-8 -147 -35 -293.5t-82 -287.5l-33 -82q-23 -53 -50.5 -107.5t-55.5 -101.5q27 -47 63.5 -94.5t75.5 -84t77 -60t68 -23.5h46v-111h-365v123q25 14 25 43q0 25 -20.5 56.5t-35.5 49.5q-18 -29 -35.5 -54t-17.5 -54q4 -29 25 -41v-123h-365v111h45q31 0 70 23.5 t77.5 61t74.5 85t63 92.5q-121 201 -183.5 423t-72.5 449q-2 35 -25.5 58.5t-58.5 23.5h-45z" />
<glyph unicode="y" d="M33 1327v111h239v-623q0 -123 57.5 -233.5t157.5 -182.5q104 72 161 181.5t57 234.5v623h239v-111h-45q-33 0 -58.5 -24.5t-25.5 -59.5v-428q0 -154 -71.5 -290t-200.5 -222v-108q0 -35 25.5 -59.5t58.5 -24.5h45v-111h-367v111h43q35 0 59.5 24.5t24.5 59.5v110 q-125 84 -197.5 220.5t-72.5 289.5v428q0 35 -24.5 59.5t-59.5 24.5h-45z" />
<glyph unicode="z" horiz-adv-x="653" d="M33 0l434 1327h-129q-33 0 -58.5 -24.5t-25.5 -59.5v-43h-111v238h478l-435 -1327h234q35 0 59.5 25.5t24.5 58.5v45h110v-240h-581z" />
<glyph unicode="{" horiz-adv-x="512" d="M33 539l90 90v276q0 162 80 303.5t217 223.5l59 -93q-117 -72 -181.5 -185.5t-64.5 -248.5v-295l-79 -69l79 -70v-362q0 -135 64.5 -249t181.5 -186l-59 -92q-137 82 -217 223.5t-80 303.5v340z" />
<glyph unicode="|" horiz-adv-x="1024" />
<glyph unicode="}" horiz-adv-x="512" d="M33 -326q117 72 181.5 185.5t64.5 249.5v362l79 70l-79 69v295q0 135 -64.5 249t-181.5 185l59 93q137 -82 217 -223.5t80 -303.5v-276l90 -90l-90 -90v-340q0 -162 -80 -303.5t-217 -223.5z" />
<glyph unicode="~" horiz-adv-x="1024" />
<glyph unicode="&#xa1;" horiz-adv-x="225" d="M33 909q0 33 23.5 56.5t56.5 23.5q35 0 57.5 -23.5t22.5 -56.5t-23 -57.5t-57 -24.5q-33 0 -56.5 24.5t-23.5 57.5zM57 -451v1172h111v-1172h-111z" />
<glyph unicode="&#xa2;" horiz-adv-x="534" d="M33 723q0 78 51 153.5t156 122.5v443h110v-404q35 10 74 14.5t78 4.5v-111q-78 0 -152 -22v-404q68 -20 152 -20v-111q-76 0 -152 17v-404h-110v442q-98 45 -152.5 116t-54.5 163zM145 725q0 -41 21.5 -80t73.5 -74v301q-94 -66 -95 -147z" />
<glyph unicode="&#xa3;" horiz-adv-x="778" d="M33 1067q0 100 31.5 181t85 137.5t125 86t151.5 29.5q61 0 121.5 -17.5t114.5 -58.5l-66 -88q-39 29 -81 41.5t-85 12.5q-59 0 -111.5 -22.5t-91.5 -65.5t-61.5 -103.5t-22.5 -134.5q0 -66 14.5 -132.5t34 -137t41 -144t35.5 -151.5h197v-111h-182q0 -8 1 -20.5t1 -42.5 q0 -51 -6.5 -104.5t-22.5 -106.5h295q35 0 59.5 24.5t24.5 59.5v90h110v-287h-649l31 76q27 66 37 130t10 126v27.5t-2 27.5h-133v111h117q-12 68 -34 137.5t-41.5 140t-33.5 143t-14 146.5z" />
<glyph unicode="&#xa4;" horiz-adv-x="1427" d="M33 770l86 111h65q31 129 99.5 232.5t166 176t216 112.5t249.5 40t247 -50.5t214 -142.5l-67 -90q-88 86 -195.5 129t-224.5 43q-98 0 -191.5 -31.5t-173.5 -91t-139 -142.5t-86 -185h795l-84 -111h-729v-94h657l-84 -111h-555q27 -102 86 -185t138 -141.5t173.5 -91 t192.5 -32.5h24q111 4 214.5 48t189.5 130l78 -80q-106 -104 -237.5 -156.5t-272.5 -52.5q-119 0 -231.5 40t-207 112.5t-163 176t-99.5 232.5h-149l84 111h49v94h-135z" />
<glyph unicode="&#xa5;" horiz-adv-x="1095" d="M33 565v111h280q-14 23 -25.5 46t-21.5 48h-233v111h200q-12 57 -12 120v330h-84v111h195v-441q0 -125 57 -234.5t158 -180.5q104 72 160.5 181.5t56.5 233.5v441h194v-111h-84v-330q0 -63 -12 -120h201v-111h-234q-20 -45 -49 -94h283v-111h-371l-90 -78v-288 q0 -35 25.5 -59.5t58.5 -24.5h45v-113h-366v113h43q35 0 59.5 24.5t24.5 59.5v288q-25 20 -48.5 42t-42.5 36h-368z" />
<glyph unicode="&#xa6;" horiz-adv-x="1024" />
<glyph unicode="&#xa7;" horiz-adv-x="2592" d="M33 55v221q0 41 29.5 72t72.5 31h348v-84h-348q-18 0 -18 -19v-18h366v-84h-366v-119h-84zM33 1229v174h274v-592h-174v418h-100zM274 434v221q0 41 30 71t73 30h348v-82h-348q-8 0 -13.5 -6t-5.5 -13v-18h367v-84h-367v-119h-84zM428 811v274q0 66 25.5 123.5 t68.5 100.5t100.5 68.5t122.5 25.5h492v-273q0 -66 -25.5 -124t-68.5 -101t-100.5 -68.5t-122.5 -25.5h-492zM530 55v148q0 72 51.5 123t123.5 51h272v-150q0 -72 -50 -122t-122 -50h-275zM600 985h320q59 0 100 43t41 102v99h-316q-59 0 -102 -42t-43 -102v-100zM614 139 h191q37 0 62.5 25.5t25.5 62.5v66h-188q-37 0 -64 -25.5t-27 -64.5v-64zM803 434v322h473v-113q0 -49 -34 -86t-81 -41l76 -82h-113l-75 82h-121v84h221q18 0 30.5 12.5t12.5 30.5v29h-305v-238h-84zM1053 55v322h47q59 0 116.5 -20.5t104.5 -57.5q66 -51 106 -125v205h84 v-324h-125q-14 55 -41.5 98.5t-74.5 79.5q-61 45 -133 58v-236h-84zM1348 535q0 35 18 59q-18 25 -18 61q0 41 29.5 71t70.5 30h348v-82h-348q-6 0 -11 -6t-5 -13q0 -18 16 -18h348v-84h-348q-16 0 -16 -18q0 -16 16 -17h348v-84h-348q-41 0 -70.5 30t-29.5 71zM1356 811 v274q0 66 24.5 123.5t67.5 100.5t101.5 68.5t123.5 25.5h492v-273q0 -66 -24.5 -124t-67.5 -101t-101.5 -68.5t-124.5 -25.5h-491zM1530 985h317q59 0 101.5 43t42.5 102v99h-318q-59 0 -101 -42t-42 -102v-100zM1581 295v84h465v-84h-238v-156h101v-84h-185v240h-143z M1868 535q0 33 20 59q-20 27 -20 61q0 41 29.5 71t70.5 30h348v-82h-348q-6 0 -11 -6t-5 -13q0 -18 16 -18h348v-84h-348q-16 0 -16 -18q0 -16 16 -17h348v-84h-348q-41 0 -70.5 30t-29.5 71zM2103 55v84h295q43 0 66 35h-361v41q0 68 48.5 116t113.5 48h295v-84h-295 q-43 0 -65 -37h360v-43q0 -66 -47 -113t-115 -47h-295zM2284 1229v174h276v-592h-174v418h-102z" />
<glyph unicode="&#xa8;" horiz-adv-x="305" d="M33 1507v105h100v-105h-100zM170 1507v105h102v-105h-102z" />
<glyph unicode="&#xa9;" horiz-adv-x="1505" d="M41 729q0 150 58.5 283t157.5 232t232.5 156.5t280.5 57.5q150 0 283 -57.5t232 -156.5t157.5 -232t58.5 -283t-58.5 -283t-157.5 -232t-232 -156.5t-283 -57.5t-282 58.5t-231 157.5t-157.5 231.5t-58.5 281.5zM106 729q0 -135 52.5 -256t143.5 -212t212 -143t256 -52 q137 0 259 53t212 144t142.5 212t52.5 254q0 137 -52.5 258t-143.5 212t-212 143.5t-258 52.5q-133 0 -254 -52.5t-212 -142.5t-144.5 -212t-53.5 -259zM334 721q0 117 45 220t122 180t179 122t219 45h45v-196h-88v14q0 33 -24.5 55.5t-55.5 22.5q-8 0 -20 -4 q-72 -23 -133.5 -68t-106.5 -105.5t-70.5 -133t-25.5 -152.5q0 -184 127 -322q80 -90 176 -122.5t221 -32.5v-88h-45q-117 0 -219 45t-179 121.5t-122 179t-45 219.5z" />
<glyph unicode="&#xaa;" horiz-adv-x="567" d="M33 754v110h80v107h-78v110h78v97q0 78 38.5 147.5t104.5 108.5l29 16l28 -16q68 -39 107 -109t39 -147v-314h76v-110h-187v217h-125v-217h-190zM223 1081h125v97q0 86 -63 139q-61 -55 -62 -139v-97z" />
<glyph unicode="&#xab;" horiz-adv-x="481" d="M33 795l231 231v-139l-96 -94l96 -99v-139zM217 795l232 231v-139l-97 -94l97 -99v-139z" />
<glyph unicode="&#xac;" horiz-adv-x="761" d="M33 545v82h696v-246h-82v164h-614z" />
<glyph unicode="&#xad;" horiz-adv-x="413" d="M33 725v111h348v-111h-348z" />
<glyph unicode="&#xae;" horiz-adv-x="733" d="M33 1106q0 70 26.5 130t71.5 105t106.5 72t129.5 27t129 -27t106 -72t71.5 -105t26.5 -130q0 -68 -26.5 -129.5t-71.5 -106.5t-106.5 -71.5t-128.5 -26.5q-68 0 -129.5 26.5t-106.5 71.5t-71.5 106.5t-26.5 129.5zM84 1106q0 -57 22.5 -108.5t61.5 -90.5t90 -61.5 t109 -22.5q57 0 109 22.5t90 61.5t60.5 90.5t22.5 108.5t-22.5 109.5t-61.5 90t-90 60.5t-108 23t-108.5 -23t-90.5 -60.5t-61.5 -90t-22.5 -109.5zM236 1270v55h69q33 0 61.5 -13.5t50 -36t34 -52t12.5 -62.5q0 -45 -20.5 -81t-55.5 -58q16 -29 41 -58.5t43 -29.5h21v-55 h-130v53q10 0 11.5 4t1.5 6q0 8 -10.5 20.5t-20.5 26.5l-10 12l-6 -2v-49q0 -16 18 -16v-55h-108v55h20q14 0 14 16v305q0 14 -14 15h-22zM328 1057q35 10 58.5 37.5t23.5 66.5t-24 67.5t-58 39.5v-211z" />
<glyph unicode="&#xaf;" horiz-adv-x="479" d="M33 1370v74h413v-74h-413z" />
<glyph unicode="&#xb0;" horiz-adv-x="507" d="M33 1210q0 45 17.5 85t48 71t70.5 48.5t87 17.5q43 0 83 -17.5t69.5 -47.5t48 -71t18.5 -86q0 -43 -17.5 -83t-47 -70.5t-69.5 -49t-85 -18.5q-49 0 -90 18.5t-70.5 49t-46 70.5t-16.5 83zM125 1210q0 -55 39 -93t92 -38t90 39t37 92q0 55 -38 92t-89 37q-53 0 -92 -35.5 t-39 -93.5z" />
<glyph unicode="&#xb1;" horiz-adv-x="761" d="M33 0v82h696v-82h-696zM33 545v82h307v307h82v-307h307v-82h-307v-307h-82v307h-307z" />
<glyph unicode="&#xb2;" horiz-adv-x="423" d="M33 1251v154h69v-23q45 23 88 23q41 0 77 -16.5t63.5 -44t44 -63.5t16.5 -77q0 -74 -37 -135q-23 -41 -47 -77t-49 -64q-35 -41 -63.5 -84t-44.5 -92h112q16 0 24.5 10t8.5 22v47h70v-151h-306l9 41q16 72 62 142.5t91 127.5q41 49 69.5 102.5t28.5 110.5q0 53 -38.5 92 t-92.5 39q-23 0 -51 -14q-20 -8 -27.5 -27.5t-7.5 -42.5h-69z" />
<glyph unicode="&#xb3;" horiz-adv-x="471" d="M33 731v92q66 -59 141 -59q76 0 131 52t64 128q0 53 -17.5 93t-42 65.5t-53.5 39t-51 13.5h-33v66q41 20 70.5 52t46.5 73h-137q-12 0 -22.5 -8.5t-10.5 -24.5v-49h-70v153h330l-8 -43q-20 -100 -92 -166q76 -29 117.5 -96.5t41.5 -165.5q-4 -49 -24.5 -94t-56 -81 t-82 -56.5t-99.5 -20.5q-35 0 -71.5 8.5t-71.5 28.5z" />
<glyph unicode="&#xb4;" horiz-adv-x="405" d="M33 1464v45l340 97v-142h-340z" />
<glyph unicode="&#xb6;" horiz-adv-x="1327" d="M33 911q0 109 42 205t113.5 168t168 114t204.5 42h733v-66h-92q-49 0 -84 -34.5t-35 -84.5v-1699h-125v1785h-204v-1785h-119v827h-74q-109 0 -205 42t-167.5 113.5t-113.5 168t-42 204.5z" />
<glyph unicode="&#xb7;" horiz-adv-x="225" d="M33 717q0 35 23.5 58.5t56.5 23.5t56.5 -23.5t23.5 -58.5q0 -33 -24 -56.5t-56 -23.5q-33 0 -56.5 23.5t-23.5 56.5z" />
<glyph unicode="&#xb8;" horiz-adv-x="292" d="M33 -133l106 184l76 -43l-49 -84q45 -8 69.5 -43t24.5 -74q0 -57 -37 -87.5t-84 -30.5h-96v86q23 2 47.5 2h48.5q14 0 24.5 9t10.5 24q0 12 -9 22t-26 10q-16 0 -28 -16z" />
<glyph unicode="&#xb9;" horiz-adv-x="264" d="M33 705v71h30q33 0 33 33v516q0 35 -33 35h-30v70h133v-621q0 -33 35 -33h30v-71h-198z" />
<glyph unicode="&#xba;" horiz-adv-x="751" d="M33 1098q0 72 26.5 134t73.5 109.5t109.5 74t134.5 26.5q70 0 132 -26.5t108.5 -74t74 -109.5t27.5 -134t-26.5 -134.5t-74 -108.5t-110 -73.5t-131.5 -27.5q-72 0 -134.5 27.5t-109.5 73.5t-73.5 108.5t-26.5 134.5zM143 1098q0 -49 18.5 -91t50.5 -74t74 -50.5 t91 -18.5t91 18.5t72.5 50.5t49 75t18.5 90t-18.5 90t-50 74.5t-73.5 50t-89 18.5t-89 -18.5t-75 -50t-51.5 -73.5t-18.5 -91z" />
<glyph unicode="&#xbb;" horiz-adv-x="481" d="M33 555v139l96 99l-96 94v139l231 -231zM217 555v139l96 99l-96 94v139l232 -231z" />
<glyph unicode="&#xbc;" horiz-adv-x="1140" d="M33 475v90h35q23 0 36 13.5t13 33.5v693q0 18 -13.5 31.5t-35.5 13.5h-35v90h172v-828q0 -20 13 -33.5t36 -13.5h37v-90h-258zM150 8l729 1438h110l-729 -1438h-110zM582 256l342 711h184v-90h-37q-23 0 -36 -13.5t-13 -32.5v-487h80v-88h-80v-117q0 -20 13.5 -33.5 t35.5 -13.5h37v-90h-258v90h35q20 0 33.5 13.5t13.5 33.5v117h-350zM725 344h207v434z" />
<glyph unicode="&#xbd;" horiz-adv-x="1406" d="M33 475v90h35q23 0 36 13.5t13 33.5v693q0 18 -13.5 31.5t-35.5 13.5h-35v90h172v-828q0 -20 13 -33.5t36 -13.5h37v-90h-258zM150 8l729 1438h110l-729 -1438h-110zM897 768v199h90v-29q25 12 58.5 20.5t62.5 8.5q55 0 103.5 -21.5t84 -57.5t57 -84.5t21.5 -101.5 q0 -98 -47 -180q-53 -92 -131 -192q-45 -55 -86 -113.5t-63 -124.5h157q20 0 33.5 14.5t13.5 32.5v60h88v-197h-403l10 53q20 102 80.5 192.5t124.5 168.5q55 66 93 137.5t38 148.5q0 74 -51 124.5t-123 50.5q-39 0 -74 -17q-27 -12 -37 -36.5t-10 -55.5h-90z" />
<glyph unicode="&#xbe;" horiz-adv-x="1335" d="M33 526v113q90 -76 188 -76q49 0 94 19.5t80 53.5t57.5 78t28.5 93q-2 68 -24.5 121t-55 90t-70.5 56.5t-69 19.5h-41v82q53 29 93 73.5t63 98.5h-187q-18 0 -32.5 -13.5t-14.5 -31.5v-64h-88v199h434q0 -55 -12 -97.5t-31.5 -74t-44 -57t-49.5 -50.5q104 -35 162.5 -126 t58.5 -226q-4 -66 -32.5 -125t-75.5 -106.5t-109.5 -75t-134.5 -27.5q-47 0 -95 12.5t-93 40.5zM344 8l729 1438h111l-729 -1438h-111zM776 256l342 711h185v-90h-37q-23 0 -36 -13.5t-13 -32.5v-487h79v-88h-79v-117q0 -20 13 -33.5t36 -13.5h37v-90h-259v90h35 q20 0 33.5 13.5t13.5 33.5v117h-350zM920 344h206v434z" />
<glyph unicode="&#xbf;" horiz-adv-x="724" d="M33 -6q0 72 17.5 128t45 102t63.5 84t72 71l82 74q41 37 68 76.5t27 88.5v164h110v-164q0 -53 -15.5 -93t-41 -72.5t-58 -63.5t-67.5 -65l-21 -19q-33 -29 -63.5 -59.5t-55 -67.5t-39 -80t-14.5 -98q0 -66 22.5 -117t61.5 -86t89.5 -54t103.5 -19q29 2 57.5 7t51 17 t37 32.5t14.5 53.5v60h112v-166q-59 -51 -124.5 -83t-151.5 -32q-78 0 -147.5 30.5t-122 83t-83 121t-30.5 146.5zM373 971q0 33 24.5 56.5t57.5 23.5t56.5 -23.5t23.5 -56.5t-24 -57.5t-56 -24.5q-33 0 -57.5 24.5t-24.5 57.5z" />
<glyph unicode="&#xc0;" horiz-adv-x="946" d="M4 0v111h45q35 0 59.5 24.5t24.5 57.5v708q0 180 88 317.5t238 229.5q154 -92 240.5 -227.5t86.5 -319.5v-401h105v-111h-105v-196q0 -33 26 -57.5t58 -24.5h48v-111h-209q240 -199 521 -297t576 -98q162 0 326 31.5t318.5 95t297 156t265.5 214.5l77 -77 q-131 -129 -282.5 -228.5t-314 -166t-333.5 -100.5t-343 -34q-238 0 -462.5 57.5t-427 169t-376.5 277.5t-307 381v-186q0 -35 24.5 -59.5t59.5 -24.5h45v-111h-369zM244 500h432v401q0 125 -56.5 235.5t-160.5 180.5q-100 -70 -157.5 -180.5t-57.5 -235.5v-401zM303 1466 v142l340 -97v-45h-340zM367 389q96 -154 225 -278q35 0 59.5 24.5t24.5 59.5v194h-309z" />
<glyph unicode="&#xc1;" horiz-adv-x="946" d="M4 0v111h45q35 0 59.5 24.5t24.5 57.5v708q0 180 88 317.5t238 229.5q154 -92 240.5 -227.5t86.5 -319.5v-401h105v-111h-105v-196q0 -33 26 -57.5t58 -24.5h48v-111h-209q240 -199 521 -297t576 -98q162 0 326 31.5t318.5 95t297 156t265.5 214.5l77 -77 q-131 -129 -282.5 -228.5t-314 -166t-333.5 -100.5t-343 -34q-238 0 -462.5 57.5t-427 169t-376.5 277.5t-307 381v-186q0 -35 24.5 -59.5t59.5 -24.5h45v-111h-369zM244 500h432v401q0 125 -56.5 235.5t-160.5 180.5q-100 -70 -157.5 -180.5t-57.5 -235.5v-401zM303 1466 v45l340 97v-142h-340zM367 389q96 -154 225 -278q35 0 59.5 24.5t24.5 59.5v194h-309z" />
<glyph unicode="&#xc2;" horiz-adv-x="946" d="M4 0v111h45q35 0 59.5 24.5t24.5 57.5v708q0 180 88 317.5t238 229.5q154 -92 240.5 -227.5t86.5 -319.5v-401h105v-111h-105v-196q0 -33 26 -57.5t58 -24.5h48v-111h-209q240 -199 521 -297t576 -98q162 0 326 31.5t318.5 95t297 156t265.5 214.5l77 -77 q-131 -129 -282.5 -228.5t-314 -166t-333.5 -100.5t-343 -34q-238 0 -462.5 57.5t-427 169t-376.5 277.5t-307 381v-186q0 -35 24.5 -59.5t59.5 -24.5h45v-111h-369zM244 500h432v401q0 125 -56.5 235.5t-160.5 180.5q-100 -70 -157.5 -180.5t-57.5 -235.5v-401zM281 1477 l172 141l172 -141h-107l-65 32l-66 -32h-106zM367 389q96 -154 225 -278q35 0 59.5 24.5t24.5 59.5v194h-309z" />
<glyph unicode="&#xc3;" horiz-adv-x="946" d="M4 0v111h45q35 0 59.5 24.5t24.5 57.5v708q0 180 88 317.5t238 229.5q154 -92 240.5 -227.5t86.5 -319.5v-401h105v-111h-105v-196q0 -33 26 -57.5t58 -24.5h48v-111h-209q240 -199 521 -297t576 -98q162 0 326 31.5t318.5 95t297 156t265.5 214.5l77 -77 q-131 -129 -282.5 -228.5t-314 -166t-333.5 -100.5t-343 -34q-238 0 -462.5 57.5t-427 169t-376.5 277.5t-307 381v-186q0 -35 24.5 -59.5t59.5 -24.5h45v-111h-369zM244 500h432v401q0 125 -56.5 235.5t-160.5 180.5q-100 -70 -157.5 -180.5t-57.5 -235.5v-401zM283 1544 q16 27 48 48.5t66 21.5q27 0 47.5 -8.5t38 -18.5t34 -18t38.5 -8q20 0 35.5 14t32.5 31l41 -76q-20 -25 -52 -42.5t-67 -17.5q-23 0 -43.5 7.5t-39.5 16.5t-35.5 17.5t-31.5 8.5q-23 0 -39 -15.5t-34 -36.5zM367 389q96 -154 225 -278q35 0 59.5 24.5t24.5 59.5v194h-309z " />
<glyph unicode="&#xc4;" horiz-adv-x="946" d="M4 0v111h45q35 0 59.5 24.5t24.5 57.5v708q0 180 88 317.5t238 229.5q154 -92 240.5 -227.5t86.5 -319.5v-401h105v-111h-105v-196q0 -33 26 -57.5t58 -24.5h48v-111h-209q240 -199 521 -297t576 -98q162 0 326 31.5t318.5 95t297 156t265.5 214.5l77 -77 q-131 -129 -282.5 -228.5t-314 -166t-333.5 -100.5t-343 -34q-238 0 -462.5 57.5t-427 169t-376.5 277.5t-307 381v-186q0 -35 24.5 -59.5t59.5 -24.5h45v-111h-369zM244 500h432v401q0 125 -56.5 235.5t-160.5 180.5q-100 -70 -157.5 -180.5t-57.5 -235.5v-401zM334 1495 v105h100v-105h-100zM367 389q96 -154 225 -278q35 0 59.5 24.5t24.5 59.5v194h-309zM471 1495v105h102v-105h-102z" />
<glyph unicode="&#xc5;" horiz-adv-x="946" d="M4 0v111h45q35 0 59.5 24.5t24.5 57.5v708q0 180 88 317.5t238 229.5q154 -92 240.5 -227.5t86.5 -319.5v-401h105v-111h-105v-196q0 -33 26 -57.5t58 -24.5h48v-111h-209q240 -199 521 -297t576 -98q162 0 326 31.5t318.5 95t297 156t265.5 214.5l77 -77 q-131 -129 -282.5 -228.5t-314 -166t-333.5 -100.5t-343 -34q-238 0 -462.5 57.5t-427 169t-376.5 277.5t-307 381v-186q0 -35 24.5 -59.5t59.5 -24.5h45v-111h-369zM244 500h432v401q0 125 -56.5 235.5t-160.5 180.5q-100 -70 -157.5 -180.5t-57.5 -235.5v-401zM361 1524 q0 39 26.5 66.5t65.5 27.5t66.5 -27.5t27.5 -66.5q0 -37 -27.5 -64.5t-66.5 -27.5t-65.5 27.5t-26.5 64.5zM367 389q96 -154 225 -278q35 0 59.5 24.5t24.5 59.5v194h-309zM412 1524q0 -18 11 -29.5t30 -11.5q18 0 30.5 11t12.5 30q0 18 -12.5 30.5t-30.5 12.5t-29.5 -12.5 t-11.5 -30.5z" />
<glyph unicode="&#xc6;" horiz-adv-x="1220" d="M0 2v113h43q35 0 59.5 24.5t24.5 59.5v151h-90v111h90v444q0 92 27.5 187.5t83 173t137.5 127t190 49.5h602v-240h-110v45q0 35 -24.5 59.5t-59.5 24.5h-266v-870h315v-111h-315v-235h268q35 0 58.5 24.5t23.5 57.5v45h110v-240h-700v113h45q35 0 59.5 23.5t24.5 56.5 v155h-358v-151q0 -35 25.5 -59.5t58.5 -24.5h45v-113h-367zM238 461h376v870h-49q-84 0 -145.5 -40t-101 -101.5t-60 -137t-20.5 -147.5v-444z" />
<glyph unicode="&#xc7;" horiz-adv-x="935" d="M4 719q0 154 49 286t132 228t190.5 150.5t224.5 54.5q92 0 176 -33v35h111v-295h-111q0 72 -39 127t-121 55q-98 0 -188 -44t-159.5 -124t-111.5 -192.5t-42 -247.5q0 -197 63.5 -353.5t171 -276.5t251.5 -205t305 -139t329 -78.5t326 -24.5q178 0 358 29.5t349 87 t317.5 143.5t263.5 198l78 -77q-123 -121 -280 -213.5t-335 -154t-369.5 -93t-381.5 -31.5q-326 0 -611.5 87t-546.5 269q-399 279 -399 832zM289 -252l106 184l76 -43l-49 -84q45 -8 69.5 -43t24.5 -74q0 -57 -37 -87.5t-84 -30.5h-96v86q23 2 47.5 2h48.5q14 0 24.5 9 t10.5 24q0 12 -9 22t-26 10q-16 0 -28 -16z" />
<glyph unicode="&#xc8;" horiz-adv-x="856" d="M2 526q0 84 26.5 162t72.5 142.5t109.5 113.5t137.5 78q-31 33 -49 77t-18 91q0 51 20.5 96t54 79t78.5 53.5t94 19.5h269v-238h-113v43q0 35 -24.5 59.5t-59.5 24.5h-72q-63 0 -99 -43t-36 -96q0 -39 15.5 -64.5t39 -41t50 -22.5t51.5 -7h176v-111h-197 q-84 0 -159.5 -32.5t-133 -89t-90 -132.5t-32.5 -162q0 -297 211 -475q209 -176 469 -266q18 -4 38 -12q160 -49 337.5 -74t361.5 -25h41q182 2 363.5 31t346 83t306 132t245.5 180l78 -77q-113 -111 -262 -197t-322.5 -144.5t-362.5 -88t-380 -29.5h-53q-186 0 -372.5 25.5 t-356.5 77.5t-316.5 132t-253 186.5t-168 241.5t-61.5 299zM414 1466v142l340 -97v-45h-340z" />
<glyph unicode="&#xc9;" horiz-adv-x="856" d="M2 526q0 84 26.5 162t72.5 142.5t109.5 113.5t137.5 78q-31 33 -49 77t-18 91q0 51 20.5 96t54 79t78.5 53.5t94 19.5h269v-238h-113v43q0 35 -24.5 59.5t-59.5 24.5h-72q-63 0 -99 -43t-36 -96q0 -39 15.5 -64.5t39 -41t50 -22.5t51.5 -7h176v-111h-197 q-84 0 -159.5 -32.5t-133 -89t-90 -132.5t-32.5 -162q0 -297 211 -475q209 -176 469 -266q18 -4 38 -12q160 -49 337.5 -74t361.5 -25h41q182 2 363.5 31t346 83t306 132t245.5 180l78 -77q-113 -111 -262 -197t-322.5 -144.5t-362.5 -88t-380 -29.5h-53q-186 0 -372.5 25.5 t-356.5 77.5t-316.5 132t-253 186.5t-168 241.5t-61.5 299zM469 1466v45l340 97v-142h-340z" />
<glyph unicode="&#xca;" horiz-adv-x="856" d="M2 526q0 84 26.5 162t72.5 142.5t109.5 113.5t137.5 78q-31 33 -49 77t-18 91q0 51 20.5 96t54 79t78.5 53.5t94 19.5h269v-238h-113v43q0 35 -24.5 59.5t-59.5 24.5h-72q-63 0 -99 -43t-36 -96q0 -39 15.5 -64.5t39 -41t50 -22.5t51.5 -7h176v-111h-197 q-84 0 -159.5 -32.5t-133 -89t-90 -132.5t-32.5 -162q0 -297 211 -475q209 -176 469 -266q18 -4 38 -12q160 -49 337.5 -74t361.5 -25h41q182 2 363.5 31t346 83t306 132t245.5 180l78 -77q-113 -111 -262 -197t-322.5 -144.5t-362.5 -88t-380 -29.5h-53q-186 0 -372.5 25.5 t-356.5 77.5t-316.5 132t-253 186.5t-168 241.5t-61.5 299zM416 1477l172 141l172 -141h-107l-65 32l-66 -32h-106z" />
<glyph unicode="&#xcb;" horiz-adv-x="856" d="M2 526q0 84 26.5 162t72.5 142.5t109.5 113.5t137.5 78q-31 33 -49 77t-18 91q0 51 20.5 96t54 79t78.5 53.5t94 19.5h269v-238h-113v43q0 35 -24.5 59.5t-59.5 24.5h-72q-63 0 -99 -43t-36 -96q0 -39 15.5 -64.5t39 -41t50 -22.5t51.5 -7h176v-111h-197 q-84 0 -159.5 -32.5t-133 -89t-90 -132.5t-32.5 -162q0 -297 211 -475q209 -176 469 -266q18 -4 38 -12q160 -49 337.5 -74t361.5 -25h41q182 2 363.5 31t346 83t306 132t245.5 180l78 -77q-113 -111 -262 -197t-322.5 -144.5t-362.5 -88t-380 -29.5h-53q-186 0 -372.5 25.5 t-356.5 77.5t-316.5 132t-253 186.5t-168 241.5t-61.5 299zM492 1509v105h100v-105h-100zM629 1509v105h102v-105h-102z" />
<glyph unicode="&#xcc;" horiz-adv-x="432" d="M8 1327v111h369v-111h-47q-33 0 -58.5 -24.5t-25.5 -59.5v-1139q250 -242 558 -362.5t634 -120.5q164 0 327.5 32t320.5 94.5t301 155.5t269 218l80 -80q-133 -129 -282.5 -227.5t-310.5 -165t-328.5 -100t-337.5 -35.5h-27q-360 0 -700 136t-615 408v1186 q0 35 -24.5 59.5t-59.5 24.5h-43zM45 1466v142l340 -97v-45h-340z" />
<glyph unicode="&#xcd;" horiz-adv-x="432" d="M8 1327v111h369v-111h-47q-33 0 -58.5 -24.5t-25.5 -59.5v-1139q250 -242 558 -362.5t634 -120.5q164 0 327.5 32t320.5 94.5t301 155.5t269 218l80 -80q-133 -129 -282.5 -227.5t-310.5 -165t-328.5 -100t-337.5 -35.5h-27q-360 0 -700 136t-615 408v1186 q0 35 -24.5 59.5t-59.5 24.5h-43zM45 1466v45l340 97v-142h-340z" />
<glyph unicode="&#xce;" horiz-adv-x="432" d="M8 1327v111h369v-111h-47q-33 0 -58.5 -24.5t-25.5 -59.5v-1139q250 -242 558 -362.5t634 -120.5q164 0 327.5 32t320.5 94.5t301 155.5t269 218l80 -80q-133 -129 -282.5 -227.5t-310.5 -165t-328.5 -100t-337.5 -35.5h-27q-360 0 -700 136t-615 408v1186 q0 35 -24.5 59.5t-59.5 24.5h-43zM43 1477l172 141l172 -141h-107l-65 32l-66 -32h-106z" />
<glyph unicode="&#xcf;" horiz-adv-x="432" d="M8 1327v111h369v-111h-47q-33 0 -58.5 -24.5t-25.5 -59.5v-1139q250 -242 558 -362.5t634 -120.5q164 0 327.5 32t320.5 94.5t301 155.5t269 218l80 -80q-133 -129 -282.5 -227.5t-310.5 -165t-328.5 -100t-337.5 -35.5h-27q-360 0 -700 136t-615 408v1186 q0 35 -24.5 59.5t-59.5 24.5h-43zM76 1478v105h100v-105h-100zM213 1478v105h102v-105h-102z" />
<glyph unicode="&#xd0;" horiz-adv-x="997" d="M0 0v111h45q35 0 59.5 25.5t24.5 58.5v407h-113v111h113v530q0 35 -24.5 59.5t-59.5 24.5h-45v111h195q147 0 276 -58.5t226.5 -157t152.5 -229.5t55 -274t-55 -273.5t-152.5 -229.5t-226.5 -157.5t-276 -58.5h-195zM240 113q117 10 218 62t176 134t118 187.5t43 222.5 t-43 222.5t-118 187t-176.5 134t-217.5 62.5v-612h125v-111h-125v-489z" />
<glyph unicode="&#xd1;" horiz-adv-x="960" d="M6 0v111h43q35 0 59.5 24.5t24.5 59.5v1048q0 35 -24.5 59.5t-59.5 24.5h-43v111h238v-158q0 -299 106.5 -575.5t298.5 -503.5v1042q0 35 -24.5 59.5t-59.5 24.5h-43v111h369v-111h-47q-33 0 -58.5 -22.5t-25.5 -57.5v-1165q121 -117 259 -205t287.5 -148.5t306 -92 t314.5 -33.5h27q164 0 325.5 30.5t316 93t297 155.5t265.5 216l80 -78q-131 -129 -282.5 -228t-314.5 -165.5t-334 -100.5t-343 -34q-289 0 -555 84t-489.5 238.5t-397.5 374t-278 487.5v-481q0 -35 25.5 -59.5t58.5 -24.5h47v-111h-369zM252 1544q16 27 48 48.5t66 21.5 q27 0 47.5 -8.5t38 -18.5t34 -18t38.5 -8q20 0 35.5 14t32.5 31l41 -76q-20 -25 -52 -42.5t-67 -17.5q-23 0 -43.5 7.5t-39.5 16.5t-35.5 17.5t-31.5 8.5q-23 0 -39 -15.5t-34 -36.5z" />
<glyph unicode="&#xd2;" horiz-adv-x="1507" d="M2 719q0 147 57.5 278t155.5 229.5t228 155t278 56.5q147 0 277 -56.5t228.5 -155t156 -229.5t57.5 -278q0 -154 -60.5 -286t-161 -228t-230.5 -150.5t-271 -54.5q-104 0 -209 33l33 104q86 -27 178 -26q119 0 229.5 46t194.5 128t135 193.5t51 240.5q0 125 -48 235.5 t-131 193.5t-193.5 131t-235.5 48t-235.5 -48t-193.5 -131t-131 -193.5t-48 -235.5q0 -174 59 -316.5t160.5 -253t240 -191.5t296 -133t327.5 -76.5t336 -24.5h59q174 0 349.5 30.5t335 89t300 142.5t248.5 188l80 -78q-123 -119 -280.5 -209t-337 -151.5t-372 -92 t-382.5 -30.5q-174 0 -354.5 26.5t-350.5 84t-320.5 145.5t-262 211t-177 281.5t-65.5 357.5zM547 1466v142l340 -97v-45h-340z" />
<glyph unicode="&#xd3;" horiz-adv-x="1507" d="M2 719q0 147 57.5 278t155.5 229.5t228 155t278 56.5q147 0 277 -56.5t228.5 -155t156 -229.5t57.5 -278q0 -154 -60.5 -286t-161 -228t-230.5 -150.5t-271 -54.5q-104 0 -209 33l33 104q86 -27 178 -26q119 0 229.5 46t194.5 128t135 193.5t51 240.5q0 125 -48 235.5 t-131 193.5t-193.5 131t-235.5 48t-235.5 -48t-193.5 -131t-131 -193.5t-48 -235.5q0 -174 59 -316.5t160.5 -253t240 -191.5t296 -133t327.5 -76.5t336 -24.5h59q174 0 349.5 30.5t335 89t300 142.5t248.5 188l80 -78q-123 -119 -280.5 -209t-337 -151.5t-372 -92 t-382.5 -30.5q-174 0 -354.5 26.5t-350.5 84t-320.5 145.5t-262 211t-177 281.5t-65.5 357.5zM584 1466v45l340 97v-142h-340z" />
<glyph unicode="&#xd4;" horiz-adv-x="1507" d="M2 719q0 147 57.5 278t155.5 229.5t228 155t278 56.5q147 0 277 -56.5t228.5 -155t156 -229.5t57.5 -278q0 -154 -60.5 -286t-161 -228t-230.5 -150.5t-271 -54.5q-104 0 -209 33l33 104q86 -27 178 -26q119 0 229.5 46t194.5 128t135 193.5t51 240.5q0 125 -48 235.5 t-131 193.5t-193.5 131t-235.5 48t-235.5 -48t-193.5 -131t-131 -193.5t-48 -235.5q0 -174 59 -316.5t160.5 -253t240 -191.5t296 -133t327.5 -76.5t336 -24.5h59q174 0 349.5 30.5t335 89t300 142.5t248.5 188l80 -78q-123 -119 -280.5 -209t-337 -151.5t-372 -92 t-382.5 -30.5q-174 0 -354.5 26.5t-350.5 84t-320.5 145.5t-262 211t-177 281.5t-65.5 357.5zM516 1477l172 141l172 -141h-107l-65 32l-66 -32h-106z" />
<glyph unicode="&#xd5;" horiz-adv-x="1507" d="M2 719q0 147 57.5 278t155.5 229.5t228 155t278 56.5q147 0 277 -56.5t228.5 -155t156 -229.5t57.5 -278q0 -154 -60.5 -286t-161 -228t-230.5 -150.5t-271 -54.5q-104 0 -209 33l33 104q86 -27 178 -26q119 0 229.5 46t194.5 128t135 193.5t51 240.5q0 125 -48 235.5 t-131 193.5t-193.5 131t-235.5 48t-235.5 -48t-193.5 -131t-131 -193.5t-48 -235.5q0 -174 59 -316.5t160.5 -253t240 -191.5t296 -133t327.5 -76.5t336 -24.5h59q174 0 349.5 30.5t335 89t300 142.5t248.5 188l80 -78q-123 -119 -280.5 -209t-337 -151.5t-372 -92 t-382.5 -30.5q-174 0 -354.5 26.5t-350.5 84t-320.5 145.5t-262 211t-177 281.5t-65.5 357.5zM506 1544q16 27 48 48.5t66 21.5q27 0 47.5 -8.5t38 -18.5t34 -18t38.5 -8q20 0 35.5 14t32.5 31l41 -76q-20 -25 -52 -42.5t-67 -17.5q-23 0 -43.5 7.5t-39.5 16.5t-35.5 17.5 t-31.5 8.5q-23 0 -39 -15.5t-34 -36.5z" />
<glyph unicode="&#xd6;" horiz-adv-x="1507" d="M2 719q0 147 57.5 278t155.5 229.5t228 155t278 56.5q147 0 277 -56.5t228.5 -155t156 -229.5t57.5 -278q0 -154 -60.5 -286t-161 -228t-230.5 -150.5t-271 -54.5q-104 0 -209 33l33 104q86 -27 178 -26q119 0 229.5 46t194.5 128t135 193.5t51 240.5q0 125 -48 235.5 t-131 193.5t-193.5 131t-235.5 48t-235.5 -48t-193.5 -131t-131 -193.5t-48 -235.5q0 -174 59 -316.5t160.5 -253t240 -191.5t296 -133t327.5 -76.5t336 -24.5h59q174 0 349.5 30.5t335 89t300 142.5t248.5 188l80 -78q-123 -119 -280.5 -209t-337 -151.5t-372 -92 t-382.5 -30.5q-174 0 -354.5 26.5t-350.5 84t-320.5 145.5t-262 211t-177 281.5t-65.5 357.5zM602 1489v105h100v-105h-100zM739 1489v105h102v-105h-102z" />
<glyph unicode="&#xd7;" horiz-adv-x="614" d="M33 369l217 217l-217 217l57 57l217 -217l217 217l58 -57l-217 -217l217 -217l-58 -58l-217 217l-217 -217z" />
<glyph unicode="&#xd8;" horiz-adv-x="1505" d="M4 723q0 297 211 508t508 211q133 0 254 -46t215 -128l145 147l80 -78l-147 -147q82 -94 128 -214t46 -253q0 -297 -211 -509t-510 -212q-133 0 -252 46t-215 128l-147 -147l-78 80l147 145q-82 96 -128 216t-46 253zM115 723q0 -111 37.5 -211t103.5 -178l856 856 q-78 66 -178 103.5t-211 37.5q-250 0 -429 -179t-179 -429zM334 254q80 -66 179 -102.5t210 -36.5q252 0 430 178t178 430q0 111 -37 210t-102 179z" />
<glyph unicode="&#xd9;" horiz-adv-x="929" d="M2 1327v111h240v-1119q0 -43 16 -80.5t45 -66.5t67 -45t81 -16t80.5 16t66.5 45t45 66.5t16 80.5v1119h240v-111h-45q-33 0 -57.5 -23.5t-24.5 -58.5v-1141q250 -242 558 -362.5t634 -120.5q336 0 649.5 124t569.5 376l77 -80q-133 -133 -285.5 -232.5t-317.5 -165 t-338 -98t-345 -32.5h-24q-172 2 -346 37.5t-339 104.5t-318.5 170t-287.5 232v21q-41 -37 -95 -57.5t-113 -20.5q-66 0 -124.5 25.5t-101.5 68.5t-68.5 101.5t-25.5 123.5v924q0 35 -24.5 59.5t-59.5 24.5h-45zM295 1466v142l340 -97v-45h-340z" />
<glyph unicode="&#xda;" horiz-adv-x="929" d="M2 1327v111h240v-1119q0 -43 16 -80.5t45 -66.5t67 -45t81 -16t80.5 16t66.5 45t45 66.5t16 80.5v1119h240v-111h-45q-33 0 -57.5 -23.5t-24.5 -58.5v-1141q250 -242 558 -362.5t634 -120.5q336 0 649.5 124t569.5 376l77 -80q-133 -133 -285.5 -232.5t-317.5 -165 t-338 -98t-345 -32.5h-24q-172 2 -346 37.5t-339 104.5t-318.5 170t-287.5 232v21q-41 -37 -95 -57.5t-113 -20.5q-66 0 -124.5 25.5t-101.5 68.5t-68.5 101.5t-25.5 123.5v924q0 35 -24.5 59.5t-59.5 24.5h-45zM295 1466v45l340 97v-142h-340z" />
<glyph unicode="&#xdb;" horiz-adv-x="929" d="M2 1327v111h240v-1119q0 -43 16 -80.5t45 -66.5t67 -45t81 -16t80.5 16t66.5 45t45 66.5t16 80.5v1119h240v-111h-45q-33 0 -57.5 -23.5t-24.5 -58.5v-1141q250 -242 558 -362.5t634 -120.5q336 0 649.5 124t569.5 376l77 -80q-133 -133 -285.5 -232.5t-317.5 -165 t-338 -98t-345 -32.5h-24q-172 2 -346 37.5t-339 104.5t-318.5 170t-287.5 232v21q-41 -37 -95 -57.5t-113 -20.5q-66 0 -124.5 25.5t-101.5 68.5t-68.5 101.5t-25.5 123.5v924q0 35 -24.5 59.5t-59.5 24.5h-45zM293 1477l172 141l172 -141h-107l-65 32l-66 -32h-106z" />
<glyph unicode="&#xdc;" horiz-adv-x="929" d="M2 1327v111h240v-1119q0 -43 16 -80.5t45 -66.5t67 -45t81 -16t80.5 16t66.5 45t45 66.5t16 80.5v1119h240v-111h-45q-33 0 -57.5 -23.5t-24.5 -58.5v-1141q250 -242 558 -362.5t634 -120.5q336 0 649.5 124t569.5 376l77 -80q-133 -133 -285.5 -232.5t-317.5 -165 t-338 -98t-345 -32.5h-24q-172 2 -346 37.5t-339 104.5t-318.5 170t-287.5 232v21q-41 -37 -95 -57.5t-113 -20.5q-66 0 -124.5 25.5t-101.5 68.5t-68.5 101.5t-25.5 123.5v924q0 35 -24.5 59.5t-59.5 24.5h-45zM344 1509v105h100v-105h-100zM481 1509v105h102v-105h-102z " />
<glyph unicode="&#xdd;" horiz-adv-x="935" d="M4 1327v111h240v-623q0 -123 57 -233.5t158 -182.5q104 72 160.5 181.5t56.5 234.5v623h239v-111h-45q-33 0 -58.5 -24.5t-25.5 -59.5v-428q0 -154 -71.5 -290t-200.5 -222v-199q250 -242 558 -362.5t634 -120.5q336 0 649.5 124t569.5 376l77 -80 q-131 -131 -281.5 -229.5t-314 -165t-334.5 -100t-341 -33.5q-362 0 -705.5 135t-622.5 409v248q-125 84 -197.5 220.5t-72.5 289.5v428q0 35 -24.5 59.5t-59.5 24.5h-45zM297 1464v45l340 97v-142h-340z" />
<glyph unicode="&#xde;" horiz-adv-x="753" d="M-6 2v113h45q35 0 59.5 24.5t24.5 59.5v1048q0 35 -24.5 59.5t-59.5 24.5h-45v111h368v-111h-45q-35 0 -59.5 -24.5t-24.5 -63.5q96 -10 180.5 -55t147 -114.5t98 -159t35.5 -187.5t-35.5 -187t-98 -159t-146.5 -115t-181 -55v-12q0 -35 25 -59.5t59 -24.5h45v-113h-368z M233 324q74 10 137.5 46t110.5 90t75 122.5t28 144.5t-28 144.5t-75 123t-110.5 90t-137.5 45.5v-806z" />
<glyph unicode="&#xdf;" horiz-adv-x="1355" d="M33 0v319h110v-79q0 -39 27 -63.5t63.5 -39t75.5 -20.5t62 -6q68 0 129 26.5t106 71.5t72 106.5t27 128.5q0 63 -23 116.5t-60.5 97.5t-86 82t-97.5 71l-41 27q-53 33 -103 69.5t-90 79.5t-64.5 91t-24.5 108q0 51 20.5 97t54 80t78.5 53.5t92 19.5q51 0 97 -17v21h110 v-244h-110v45q0 41 -28 62.5t-67 21.5q-53 0 -95 -39t-42 -100q0 -63 49.5 -115.5t120.5 -99.5l105 -68q59 -39 115.5 -84t100.5 -100t71.5 -123t27.5 -152q0 -86 -29.5 -159.5t-83.5 -132.5q41 -25 92.5 -33t79.5 -8q68 0 129.5 26.5t106.5 71.5t71.5 106.5t26.5 128.5 q0 63 -22.5 116.5t-60.5 97.5t-86 82t-97 71l-41 27q-53 33 -103 69.5t-90 79.5t-65 91t-25 108q0 51 20.5 97t54.5 80t79 53.5t92 19.5q51 0 97 -17v21h110v-244h-110v45q0 41 -28 62.5t-67 21.5q-53 0 -95 -39t-42 -100q0 -63 49 -115.5t121 -99.5l105 -68 q59 -39 115.5 -84t101.5 -100t71.5 -123t26.5 -152q0 -92 -36 -173t-96.5 -141t-141 -95t-171.5 -35q-53 0 -116.5 14.5t-134.5 65.5q-53 -39 -118 -59.5t-134 -20.5q-59 0 -117.5 16.5t-110.5 44.5v-61h-110z" />
<glyph unicode="&#xe0;" d="M33 0v111h45q35 0 59.5 24.5t24.5 57.5v155h-90v111h90v442q0 180 88 317.5t237 229.5q154 -92 241 -227.5t87 -319.5v-708q0 -33 25.5 -57.5t58.5 -24.5h45v-111h-366v111h43q35 0 59.5 24.5t24.5 59.5v153h-433v-153q0 -35 25 -59.5t59 -24.5h45v-111h-368zM272 459 h433v442q0 125 -56.5 235.5t-161.5 180.5q-100 -70 -157.5 -180.5t-57.5 -235.5v-442zM318 1464v142l340 -97v-45h-340z" />
<glyph unicode="&#xe1;" d="M33 0v111h45q35 0 59.5 24.5t24.5 57.5v155h-90v111h90v442q0 180 88 317.5t237 229.5q154 -92 241 -227.5t87 -319.5v-708q0 -33 25.5 -57.5t58.5 -24.5h45v-111h-366v111h43q35 0 59.5 24.5t24.5 59.5v153h-433v-153q0 -35 25 -59.5t59 -24.5h45v-111h-368zM272 459 h433v442q0 125 -56.5 235.5t-161.5 180.5q-100 -70 -157.5 -180.5t-57.5 -235.5v-442zM318 1464v45l340 97v-142h-340z" />
<glyph unicode="&#xe2;" d="M33 0v111h45q35 0 59.5 24.5t24.5 57.5v155h-90v111h90v442q0 180 88 317.5t237 229.5q154 -92 241 -227.5t87 -319.5v-708q0 -33 25.5 -57.5t58.5 -24.5h45v-111h-366v111h43q35 0 59.5 24.5t24.5 59.5v153h-433v-153q0 -35 25 -59.5t59 -24.5h45v-111h-368zM272 459 h433v442q0 125 -56.5 235.5t-161.5 180.5q-100 -70 -157.5 -180.5t-57.5 -235.5v-442zM316 1475l172 141l172 -141h-107l-65 32l-66 -32h-106z" />
<glyph unicode="&#xe3;" d="M33 0v111h45q35 0 59.5 24.5t24.5 57.5v155h-90v111h90v442q0 180 88 317.5t237 229.5q154 -92 241 -227.5t87 -319.5v-708q0 -33 25.5 -57.5t58.5 -24.5h45v-111h-366v111h43q35 0 59.5 24.5t24.5 59.5v153h-433v-153q0 -35 25 -59.5t59 -24.5h45v-111h-368zM272 459 h433v442q0 125 -56.5 235.5t-161.5 180.5q-100 -70 -157.5 -180.5t-57.5 -235.5v-442zM297 1542q16 27 48 48.5t66 21.5q27 0 47.5 -8.5t38 -18.5t34 -18t38.5 -8q20 0 35.5 14t32.5 31l41 -76q-20 -25 -52 -42.5t-67 -17.5q-23 0 -43.5 7.5t-39.5 16.5t-35.5 17.5 t-31.5 8.5q-23 0 -39 -15.5t-34 -36.5z" />
<glyph unicode="&#xe4;" d="M33 0v111h45q35 0 59.5 24.5t24.5 57.5v155h-90v111h90v442q0 180 88 317.5t237 229.5q154 -92 241 -227.5t87 -319.5v-708q0 -33 25.5 -57.5t58.5 -24.5h45v-111h-366v111h43q35 0 59.5 24.5t24.5 59.5v153h-433v-153q0 -35 25 -59.5t59 -24.5h45v-111h-368zM272 459 h433v442q0 125 -56.5 235.5t-161.5 180.5q-100 -70 -157.5 -180.5t-57.5 -235.5v-442zM365 1474v105h100v-105h-100zM502 1474v105h102v-105h-102z" />
<glyph unicode="&#xe5;" d="M33 0v111h45q35 0 59.5 24.5t24.5 57.5v155h-90v111h90v442q0 180 88 317.5t237 229.5q154 -92 241 -227.5t87 -319.5v-708q0 -33 25.5 -57.5t58.5 -24.5h45v-111h-366v111h43q35 0 59.5 24.5t24.5 59.5v153h-433v-153q0 -35 25 -59.5t59 -24.5h45v-111h-368zM272 459 h433v442q0 125 -56.5 235.5t-161.5 180.5q-100 -70 -157.5 -180.5t-57.5 -235.5v-442zM387 1512q0 39 26.5 66.5t65.5 27.5t66.5 -27.5t27.5 -66.5q0 -37 -27.5 -64.5t-66.5 -27.5t-65.5 27.5t-26.5 64.5zM438 1512q0 -18 11 -29.5t30 -11.5q18 0 30.5 11t12.5 30 q0 18 -12.5 30.5t-30.5 12.5t-29.5 -12.5t-11.5 -30.5z" />
<glyph unicode="&#xe6;" horiz-adv-x="1220" d="M0 2v113h43q35 0 59.5 24.5t24.5 59.5v151h-90v111h90v444q0 18 1 35.5t3 36.5q18 174 129 319t305 146h602v-240h-110v45q-2 35 -25.5 59.5t-58.5 24.5h-266v-870h315v-111h-315v-235h268q35 0 57.5 24.5t24.5 59.5v43h110v-240h-700v113h45q35 0 59.5 23.5t24.5 56.5 v155h-358v-151q0 -35 25.5 -59.5t58.5 -24.5h45v-113h-367zM238 461h376v870h-49q-141 0 -221 -106q-78 -102 -100 -232q-2 -23 -4 -44t-2 -44v-444z" />
<glyph unicode="&#xe7;" horiz-adv-x="839" d="M33 719q0 147 57 278t154.5 228.5t228.5 155t279 57.5h55v-250h-111v18q0 41 -30.5 70t-69.5 29q-10 0 -27 -5q-90 -29 -167.5 -85t-135 -132.5t-90.5 -170t-33 -193.5q0 -238 160 -410q104 -113 225 -155.5t279 -42.5v-111h-55q-147 0 -278.5 57.5t-229 154.5 t-154.5 228t-57 279zM375 -86l106 184l76 -43l-49 -84q45 -8 69.5 -43t24.5 -74q0 -57 -37 -87.5t-84 -30.5h-96v86q23 2 47.5 2h48.5q14 0 24.5 9t10.5 24q0 12 -9 22t-26 10q-16 0 -28 -16z" />
<glyph unicode="&#xe8;" horiz-adv-x="768" d="M33 942v111h131v192q-2 35 -25.5 58.5t-58.5 23.5h-45v111h700v-238h-110v45q0 35 -25 58.5t-59 23.5h-267v-274h258v-111h-258v-831h269q31 0 56.5 24.5t25.5 57.5v47h110v-240h-700v111h45q35 0 59.5 24.5t24.5 57.5v749h-131zM213 1464v142l340 -97v-45h-340z" />
<glyph unicode="&#xe9;" horiz-adv-x="768" d="M33 942v111h131v192q-2 35 -25.5 58.5t-58.5 23.5h-45v111h700v-238h-110v45q0 35 -25 58.5t-59 23.5h-267v-274h258v-111h-258v-831h269q31 0 56.5 24.5t25.5 57.5v47h110v-240h-700v111h45q35 0 59.5 24.5t24.5 57.5v749h-131zM213 1464v45l340 97v-142h-340z" />
<glyph unicode="&#xea;" horiz-adv-x="768" d="M33 942v111h131v192q-2 35 -25.5 58.5t-58.5 23.5h-45v111h700v-238h-110v45q0 35 -25 58.5t-59 23.5h-267v-274h258v-111h-258v-831h269q31 0 56.5 24.5t25.5 57.5v47h110v-240h-700v111h45q35 0 59.5 24.5t24.5 57.5v749h-131zM211 1475l172 141l172 -141h-107l-65 32 l-66 -32h-106z" />
<glyph unicode="&#xeb;" horiz-adv-x="768" d="M33 942v111h131v192q-2 35 -25.5 58.5t-58.5 23.5h-45v111h700v-238h-110v45q0 35 -25 58.5t-59 23.5h-267v-274h258v-111h-258v-831h269q31 0 56.5 24.5t25.5 57.5v47h110v-240h-700v111h45q35 0 59.5 24.5t24.5 57.5v749h-131zM264 1507v105h100v-105h-100zM401 1507 v105h102v-105h-102z" />
<glyph unicode="&#xec;" horiz-adv-x="434" d="M33 0v111h45q35 0 59.5 24.5t24.5 59.5v1048q0 35 -24.5 59.5t-59.5 24.5h-45v111h368v-111h-45q-35 0 -59.5 -24.5t-24.5 -59.5v-1048q0 -35 25 -59.5t59 -24.5h45v-111h-368zM47 1464v142l340 -97v-45h-340z" />
<glyph unicode="&#xed;" horiz-adv-x="434" d="M33 0v111h45q35 0 59.5 24.5t24.5 59.5v1048q0 35 -24.5 59.5t-59.5 24.5h-45v111h368v-111h-45q-35 0 -59.5 -24.5t-24.5 -59.5v-1048q0 -35 25 -59.5t59 -24.5h45v-111h-368zM47 1464v45l340 97v-142h-340z" />
<glyph unicode="&#xee;" horiz-adv-x="434" d="M33 0v111h45q35 0 59.5 24.5t24.5 59.5v1048q0 35 -24.5 59.5t-59.5 24.5h-45v111h368v-111h-45q-35 0 -59.5 -24.5t-24.5 -59.5v-1048q0 -35 25 -59.5t59 -24.5h45v-111h-368zM45 1475l172 141l172 -141h-107l-65 32l-66 -32h-106z" />
<glyph unicode="&#xef;" horiz-adv-x="434" d="M33 0v111h45q35 0 59.5 24.5t24.5 59.5v1048q0 35 -24.5 59.5t-59.5 24.5h-45v111h368v-111h-45q-35 0 -59.5 -24.5t-24.5 -59.5v-1048q0 -35 25 -59.5t59 -24.5h45v-111h-368zM96 1507v105h100v-105h-100zM233 1507v105h102v-105h-102z" />
<glyph unicode="&#xf0;" horiz-adv-x="997" d="M0 0v111h45q35 0 59.5 25.5t24.5 58.5v407h-113v111h113v530q0 35 -24.5 59.5t-59.5 24.5h-45v111h195q147 0 276 -58.5t226.5 -157t152.5 -229.5t55 -274t-55 -273.5t-152.5 -229.5t-226.5 -157.5t-276 -58.5h-195zM240 113q117 10 218 62t176 134t118 187.5t43 222.5 t-43 222.5t-118 187t-176.5 134t-217.5 62.5v-612h125v-111h-125v-489z" />
<glyph unicode="&#xf1;" horiz-adv-x="966" d="M33 0v111h45q35 0 59.5 24.5t24.5 59.5v1048q0 35 -24.5 59.5t-59.5 24.5h-45v111h198q6 0 9 -2q14 0 20 -6q141 -82 252 -205t180 -271v289q0 35 -24.5 59.5t-59.5 24.5h-43v111h369v-111h-47q-33 0 -58.5 -24.5t-25.5 -59.5v-1048q0 -35 25.5 -59.5t58.5 -24.5h47v-111 h-369v111h43q35 0 59.5 24.5t24.5 59.5v278q0 246 -112 459q-113 217 -308 358v-1095q0 -35 25 -59.5t59 -24.5h45v-111h-368zM293 1542q16 27 48 48.5t66 21.5q27 0 47.5 -8.5t38 -18.5t34 -18t38.5 -8q20 0 35.5 14t32.5 31l41 -76q-20 -25 -52 -42.5t-67 -17.5 q-23 0 -43.5 7.5t-39.5 16.5t-35.5 17.5t-31.5 8.5q-23 0 -39 -15.5t-34 -36.5z" />
<glyph unicode="&#xf2;" horiz-adv-x="1505" d="M33 719q0 147 57 278t155.5 229.5t228.5 155t278 56.5q147 0 278 -56.5t229.5 -155t156 -229.5t57.5 -278t-57.5 -278.5t-156 -229.5t-229.5 -154.5t-278 -56.5t-278.5 57.5t-229 154.5t-154.5 228t-57 279zM143 719q0 -125 48.5 -235.5t131.5 -193.5t193.5 -131 t235.5 -48t236.5 49t193.5 132t130 193.5t48 233.5q0 125 -48 235.5t-131 193.5t-193.5 131t-235.5 48q-123 0 -233.5 -48t-193.5 -130t-132.5 -193.5t-49.5 -236.5zM582 1464v142l340 -97v-45h-340z" />
<glyph unicode="&#xf3;" horiz-adv-x="1505" d="M33 719q0 147 57 278t155.5 229.5t228.5 155t278 56.5q147 0 278 -56.5t229.5 -155t156 -229.5t57.5 -278t-57.5 -278.5t-156 -229.5t-229.5 -154.5t-278 -56.5t-278.5 57.5t-229 154.5t-154.5 228t-57 279zM143 719q0 -125 48.5 -235.5t131.5 -193.5t193.5 -131 t235.5 -48t236.5 49t193.5 132t130 193.5t48 233.5q0 125 -48 235.5t-131 193.5t-193.5 131t-235.5 48q-123 0 -233.5 -48t-193.5 -130t-132.5 -193.5t-49.5 -236.5zM582 1464v45l340 97v-142h-340z" />
<glyph unicode="&#xf4;" horiz-adv-x="1505" d="M33 719q0 147 57 278t155.5 229.5t228.5 155t278 56.5q147 0 278 -56.5t229.5 -155t156 -229.5t57.5 -278t-57.5 -278.5t-156 -229.5t-229.5 -154.5t-278 -56.5t-278.5 57.5t-229 154.5t-154.5 228t-57 279zM143 719q0 -125 48.5 -235.5t131.5 -193.5t193.5 -131 t235.5 -48t236.5 49t193.5 132t130 193.5t48 233.5q0 125 -48 235.5t-131 193.5t-193.5 131t-235.5 48q-123 0 -233.5 -48t-193.5 -130t-132.5 -193.5t-49.5 -236.5zM580 1475l172 141l172 -141h-107l-65 32l-66 -32h-106z" />
<glyph unicode="&#xf5;" horiz-adv-x="1505" d="M33 719q0 147 57 278t155.5 229.5t228.5 155t278 56.5q147 0 278 -56.5t229.5 -155t156 -229.5t57.5 -278t-57.5 -278.5t-156 -229.5t-229.5 -154.5t-278 -56.5t-278.5 57.5t-229 154.5t-154.5 228t-57 279zM143 719q0 -125 48.5 -235.5t131.5 -193.5t193.5 -131 t235.5 -48t236.5 49t193.5 132t130 193.5t48 233.5q0 125 -48 235.5t-131 193.5t-193.5 131t-235.5 48q-123 0 -233.5 -48t-193.5 -130t-132.5 -193.5t-49.5 -236.5zM561 1542q16 27 48 48.5t66 21.5q27 0 47.5 -8.5t38 -18.5t34 -18t38.5 -8q20 0 35.5 14t32.5 31l41 -76 q-20 -25 -52 -42.5t-67 -17.5q-23 0 -43.5 7.5t-39.5 16.5t-35.5 17.5t-31.5 8.5q-23 0 -39 -15.5t-34 -36.5z" />
<glyph unicode="&#xf6;" horiz-adv-x="1505" d="M33 719q0 147 57 278t155.5 229.5t228.5 155t278 56.5q147 0 278 -56.5t229.5 -155t156 -229.5t57.5 -278t-57.5 -278.5t-156 -229.5t-229.5 -154.5t-278 -56.5t-278.5 57.5t-229 154.5t-154.5 228t-57 279zM143 719q0 -125 48.5 -235.5t131.5 -193.5t193.5 -131 t235.5 -48t236.5 49t193.5 132t130 193.5t48 233.5q0 125 -48 235.5t-131 193.5t-193.5 131t-235.5 48q-123 0 -233.5 -48t-193.5 -130t-132.5 -193.5t-49.5 -236.5zM617 1487v105h100v-105h-100zM754 1487v105h102v-105h-102z" />
<glyph unicode="&#xf7;" horiz-adv-x="761" d="M33 545v82h696v-82h-696zM299 422q0 35 23.5 58.5t56.5 23.5t56.5 -23.5t23.5 -58.5q0 -33 -23.5 -56.5t-56.5 -23.5t-56.5 23.5t-23.5 56.5zM299 750q0 35 23.5 58t56.5 23t56.5 -23t23.5 -58q0 -33 -23.5 -56.5t-56.5 -23.5t-56.5 23.5t-23.5 56.5z" />
<glyph unicode="&#xf8;" horiz-adv-x="1505" d="M4 723q0 297 211 508t508 211q133 0 254 -46t215 -128l145 147l80 -78l-147 -147q82 -94 128 -214t46 -253q0 -297 -211 -509t-510 -212q-133 0 -252 46t-215 128l-147 -147l-78 80l147 145q-82 96 -128 216t-46 253zM115 723q0 -111 37.5 -211t103.5 -178l856 856 q-78 66 -178 103.5t-211 37.5q-250 0 -429 -179t-179 -429zM334 254q80 -66 179 -102.5t210 -36.5q252 0 430 178t178 430q0 111 -37 210t-102 179z" />
<glyph unicode="&#xf9;" horiz-adv-x="960" d="M33 1327v111h239v-1119q0 -43 16.5 -80.5t45 -66.5t66.5 -45t81 -16q41 0 79 16t66.5 45t46 66.5t17.5 80.5v1119h238v-111h-43q-35 0 -59.5 -23.5t-24.5 -58.5v-926q0 -66 -25.5 -123t-68.5 -101t-101.5 -69.5t-124.5 -25.5t-124 25.5t-102 68.5t-69.5 101.5 t-25.5 123.5v924q0 35 -23.5 59.5t-58.5 24.5h-45zM309 1464v142l340 -97v-45h-340z" />
<glyph unicode="&#xfa;" horiz-adv-x="960" d="M33 1327v111h239v-1119q0 -43 16.5 -80.5t45 -66.5t66.5 -45t81 -16q41 0 79 16t66.5 45t46 66.5t17.5 80.5v1119h238v-111h-43q-35 0 -59.5 -23.5t-24.5 -58.5v-926q0 -66 -25.5 -123t-68.5 -101t-101.5 -69.5t-124.5 -25.5t-124 25.5t-102 68.5t-69.5 101.5 t-25.5 123.5v924q0 35 -23.5 59.5t-58.5 24.5h-45zM309 1464v45l340 97v-142h-340z" />
<glyph unicode="&#xfb;" horiz-adv-x="960" d="M33 1327v111h239v-1119q0 -43 16.5 -80.5t45 -66.5t66.5 -45t81 -16q41 0 79 16t66.5 45t46 66.5t17.5 80.5v1119h238v-111h-43q-35 0 -59.5 -23.5t-24.5 -58.5v-926q0 -66 -25.5 -123t-68.5 -101t-101.5 -69.5t-124.5 -25.5t-124 25.5t-102 68.5t-69.5 101.5 t-25.5 123.5v924q0 35 -23.5 59.5t-58.5 24.5h-45zM307 1475l172 141l172 -141h-107l-65 32l-66 -32h-106z" />
<glyph unicode="&#xfc;" horiz-adv-x="960" d="M33 1327v111h239v-1119q0 -43 16.5 -80.5t45 -66.5t66.5 -45t81 -16q41 0 79 16t66.5 45t46 66.5t17.5 80.5v1119h238v-111h-43q-35 0 -59.5 -23.5t-24.5 -58.5v-926q0 -66 -25.5 -123t-68.5 -101t-101.5 -69.5t-124.5 -25.5t-124 25.5t-102 68.5t-69.5 101.5 t-25.5 123.5v924q0 35 -23.5 59.5t-58.5 24.5h-45zM361 1507v105h100v-105h-100zM498 1507v105h102v-105h-102z" />
<glyph unicode="&#xfd;" d="M33 1327v111h239v-623q0 -123 57.5 -233.5t157.5 -182.5q104 72 161 181.5t57 234.5v623h239v-111h-45q-33 0 -58.5 -24.5t-25.5 -59.5v-428q0 -154 -71.5 -290t-200.5 -222v-108q0 -35 25.5 -59.5t58.5 -24.5h45v-111h-367v111h43q35 0 59.5 24.5t24.5 59.5v110 q-125 84 -197.5 220.5t-72.5 289.5v428q0 35 -24.5 59.5t-59.5 24.5h-45zM318 1464v45l340 97v-142h-340z" />
<glyph unicode="&#xfe;" horiz-adv-x="753" d="M-6 2v113h45q35 0 59.5 24.5t24.5 59.5v1048q0 35 -24.5 59.5t-59.5 24.5h-45v111h368v-111h-45q-35 0 -59.5 -24.5t-24.5 -63.5q96 -10 180.5 -55t147 -114.5t98 -159t35.5 -187.5t-35.5 -187t-98 -159t-146.5 -115t-181 -55v-12q0 -35 25 -59.5t59 -24.5h45v-113h-368z M233 324q74 10 137.5 46t110.5 90t75 122.5t28 144.5t-28 144.5t-75 123t-110.5 90t-137.5 45.5v-806z" />
<glyph unicode="&#xff;" d="M33 1327v111h239v-623q0 -123 57.5 -233.5t157.5 -182.5q104 72 161 181.5t57 234.5v623h239v-111h-45q-33 0 -58.5 -24.5t-25.5 -59.5v-428q0 -154 -71.5 -290t-200.5 -222v-108q0 -35 25.5 -59.5t58.5 -24.5h45v-111h-367v111h43q35 0 59.5 24.5t24.5 59.5v110 q-125 84 -197.5 220.5t-72.5 289.5v428q0 35 -24.5 59.5t-59.5 24.5h-45zM369 1489v105h100v-105h-100zM506 1489v105h102v-105h-102z" />
<glyph unicode="&#x152;" horiz-adv-x="1642" d="M33 723q0 147 57 278.5t155.5 228.5t229.5 154.5t279 57.5q41 0 79.5 -4t77.5 -15v19h699v-240h-111v45q0 35 -24.5 59.5t-59.5 24.5h-266v-274h258v-111h-258v-831h268q35 0 58.5 24.5t23.5 57.5v45h111v-240h-699v18q-39 -8 -77.5 -13t-79.5 -5q-147 0 -278.5 57.5 t-230 155.5t-155.5 229t-57 279zM145 723q0 -125 48.5 -235.5t131.5 -193.5t193.5 -131t235.5 -48q74 0 146.5 17.5t137.5 51.5v762h-129v111h129v203q-133 72 -284 71q-125 0 -235.5 -48t-193.5 -131t-131.5 -193.5t-48.5 -235.5z" />
<glyph unicode="&#x153;" horiz-adv-x="1642" d="M33 723q0 147 57 278.5t155.5 228.5t229.5 154.5t279 57.5q41 0 79.5 -4t77.5 -15v19h699v-240h-111v45q0 35 -24.5 59.5t-59.5 24.5h-266v-274h258v-111h-258v-831h268q35 0 58.5 24.5t23.5 57.5v45h111v-240h-699v18q-39 -8 -77.5 -13t-79.5 -5q-147 0 -278.5 57.5 t-230 155.5t-155.5 229t-57 279zM145 723q0 -125 48.5 -235.5t131.5 -193.5t193.5 -131t235.5 -48q74 0 146.5 17.5t137.5 51.5v762h-129v111h129v203q-133 72 -284 71q-125 0 -235.5 -48t-193.5 -131t-131.5 -193.5t-48.5 -235.5z" />
<glyph unicode="&#x178;" horiz-adv-x="935" d="M4 1327v111h240v-623q0 -123 57 -233.5t158 -182.5q104 72 160.5 181.5t56.5 234.5v623h239v-111h-45q-33 0 -58.5 -24.5t-25.5 -59.5v-428q0 -154 -71.5 -290t-200.5 -222v-199q250 -242 558 -362.5t634 -120.5q336 0 649.5 124t569.5 376l77 -80 q-131 -131 -281.5 -229.5t-314 -165t-334.5 -100t-341 -33.5q-362 0 -705.5 135t-622.5 409v248q-125 84 -197.5 220.5t-72.5 289.5v428q0 35 -24.5 59.5t-59.5 24.5h-45zM348 1509v105h100v-105h-100zM485 1509v105h102v-105h-102z" />
<glyph unicode="&#x2c6;" horiz-adv-x="409" d="M33 1475l172 141l172 -141h-107l-65 32l-66 -32h-106z" />
<glyph unicode="&#x2dc;" horiz-adv-x="446" d="M33 1542q16 27 48 48.5t66 21.5q27 0 47.5 -8.5t38 -18.5t34 -18t38.5 -8q20 0 35.5 14t32.5 31l41 -76q-20 -25 -52 -42.5t-67 -17.5q-23 0 -43.5 7.5t-39.5 16.5t-35.5 17.5t-31.5 8.5q-23 0 -39 -15.5t-34 -36.5z" />
<glyph unicode="&#x2000;" horiz-adv-x="809" />
<glyph unicode="&#x2001;" horiz-adv-x="1618" />
<glyph unicode="&#x2002;" horiz-adv-x="809" />
<glyph unicode="&#x2003;" horiz-adv-x="1618" />
<glyph unicode="&#x2004;" horiz-adv-x="539" />
<glyph unicode="&#x2005;" horiz-adv-x="404" />
<glyph unicode="&#x2006;" horiz-adv-x="269" />
<glyph unicode="&#x2007;" horiz-adv-x="269" />
<glyph unicode="&#x2008;" horiz-adv-x="202" />
<glyph unicode="&#x2009;" horiz-adv-x="323" />
<glyph unicode="&#x200a;" horiz-adv-x="89" />
<glyph unicode="&#x2010;" horiz-adv-x="413" d="M33 725v111h348v-111h-348z" />
<glyph unicode="&#x2011;" horiz-adv-x="413" d="M33 725v111h348v-111h-348z" />
<glyph unicode="&#x2012;" horiz-adv-x="413" d="M33 725v111h348v-111h-348z" />
<glyph unicode="&#x2013;" horiz-adv-x="761" d="M33 545v82h696v-82h-696z" />
<glyph unicode="&#x2014;" horiz-adv-x="1110" d="M33 545v82h1044v-82h-1044z" />
<glyph unicode="&#x2018;" horiz-adv-x="294" d="M33 1382l131 205l98 -61l-131 -205z" />
<glyph unicode="&#x2019;" horiz-adv-x="294" d="M33 1382l131 205l98 -61l-131 -205z" />
<glyph unicode="&#x201a;" horiz-adv-x="294" d="M33 -88l131 205l98 -62l-131 -205z" />
<glyph unicode="&#x201c;" horiz-adv-x="479" d="M33 1382l131 205l98 -61l-131 -205zM217 1382l131 205l98 -61l-131 -205z" />
<glyph unicode="&#x201d;" horiz-adv-x="479" d="M33 1382l131 205l98 -61l-131 -205zM217 1382l131 205l98 -61l-131 -205z" />
<glyph unicode="&#x201e;" horiz-adv-x="458" d="M33 -82l131 205l98 -62l-131 -204zM197 -82l131 205l98 -62l-131 -204z" />
<glyph unicode="&#x2022;" horiz-adv-x="540" d="M33 653q0 49 18.5 92t51 75t75.5 51.5t92 19.5t92.5 -19.5t75 -51.5t51 -75t19.5 -92t-18.5 -92t-51 -74.5t-76 -50t-92.5 -18.5t-92 18.5t-75.5 50t-51 74.5t-18.5 92z" />
<glyph unicode="&#x2026;" horiz-adv-x="634" d="M33 82q0 35 23.5 58.5t56.5 23.5t56.5 -23.5t23.5 -58.5q0 -33 -24 -56.5t-56 -23.5q-33 0 -56.5 23.5t-23.5 56.5zM238 82q0 35 23.5 58.5t55.5 23.5q33 0 56.5 -23.5t23.5 -58.5q0 -33 -23.5 -56.5t-56.5 -23.5t-56 23.5t-23 56.5zM442 82q0 35 23.5 58.5t56.5 23.5 t56.5 -23.5t23.5 -58.5q0 -33 -23.5 -56.5t-56.5 -23.5t-56.5 23.5t-23.5 56.5z" />
<glyph unicode="&#x202f;" horiz-adv-x="323" />
<glyph unicode="&#x2039;" horiz-adv-x="296" d="M33 795l231 231v-139l-96 -94l96 -99v-139z" />
<glyph unicode="&#x203a;" horiz-adv-x="296" d="M33 555v139l96 99l-96 94v139l231 -231z" />
<glyph unicode="&#x205f;" horiz-adv-x="404" />
<glyph unicode="&#x20ac;" horiz-adv-x="1427" d="M33 770l86 111h65q31 129 99.5 232.5t166 176t216 112.5t249.5 40t247 -50.5t214 -142.5l-67 -90q-88 86 -195.5 129t-224.5 43q-98 0 -191.5 -31.5t-173.5 -91t-139 -142.5t-86 -185h795l-84 -111h-729v-94h657l-84 -111h-555q27 -102 86 -185t138 -141.5t173.5 -91 t192.5 -32.5h24q111 4 214.5 48t189.5 130l78 -80q-106 -104 -237.5 -156.5t-272.5 -52.5q-119 0 -231.5 40t-207 112.5t-163 176t-99.5 232.5h-149l84 111h49v94h-135z" />
<glyph unicode="&#x2122;" horiz-adv-x="796" d="M33 1335v103h252v-103h-66v25q0 16 -26 16v-364q0 -10 7 -15.5t17 -5.5h23v-61h-164v61h24q18 0 19 21v364q-20 0 -21 -16v-25h-65zM373 930v61h26q10 0 15.5 7.5t5.5 13.5v348q0 16 -21 16h-26v62h94q43 -16 64.5 -41t35.5 -49q16 27 40 51t65 39h92v-62h-29 q-18 0 -18 -16v-348q0 -6 5 -13.5t13 -7.5h29v-61h-164v61h31q10 0 14 7.5t4 13.5v336q-23 -23 -35 -52.5t-12 -64.5h-65q0 78 -52 121v-340q0 -6 6.5 -13.5t14.5 -7.5h31v-61h-164z" />
<glyph unicode="&#xe000;" horiz-adv-x="1433" d="M0 0v1434h1434v-1434h-1434z" />
</font>
</defs>
</svg>
